<?xml version="1.0" standalone="no"?>
<!DOCTYPE svg PUBLIC "-//W3C//DTD SVG 1.1//EN" "http://www.w3.org/Graphics/SVG/1.1/DTD/svg11.dtd" >
<!--
2013-9-30: Created.
-->
<svg>
<metadata>
Created by iconfont
</metadata>
<defs>

<font id="iconfont" horiz-adv-x="1024" >
  <font-face
    font-family="iconfont"
    font-weight="500"
    font-stretch="normal"
    units-per-em="1024"
    ascent="896"
    descent="-128"
  />
    <missing-glyph />
    
    <glyph glyph-name="tupian" unicode="&#58881;" d="M310.272 697.344q19.456 0 37.376-7.68t30.72-20.48 20.48-30.208 7.68-36.864q0-39.936-28.16-67.584t-68.096-27.648q-19.456 0-36.864 7.168t-30.208 20.48-20.48 30.208-7.68 37.376q0 19.456 7.68 36.864t20.48 30.208 30.208 20.48 36.864 7.68zM875.52 846.848q52.224 0 74.24-29.184t22.016-76.288l0-735.232q0-14.336-6.656-29.184t-18.432-26.112-27.136-18.432-33.792-7.168l-754.688 0q-31.744 0-55.808 25.6t-24.064 61.44l0 749.568q0 36.864 20.48 60.928t54.272 24.064l749.568 0zM879.616 727.04q0 11.264-8.704 19.968t-20.992 8.704l-677.888 0q-12.288 0-20.48-8.704t-8.192-19.968l0-1.024 0-366.592q10.24-12.288 27.136-28.16t39.936-29.696 52.224-23.552 65.024-9.728q55.296 0 97.28 17.92t79.36 44.032 73.216 57.344 78.336 58.368 96.768 46.08 126.976 22.016l0 212.992z"  horiz-adv-x="1024" />

    
    <glyph glyph-name="kulian" unicode="&#58888;" d="M517.12 842.752q95.232 0 179.2-36.352t145.92-98.304 98.304-145.92 36.352-179.2-36.352-179.2-98.304-145.92-145.92-98.304-179.2-36.352-179.2 36.352-145.92 98.304-98.304 145.92-36.352 179.2 36.352 179.2 98.304 145.92 145.92 98.304 179.2 36.352zM663.552 634.88q-15.36 0-28.16-6.656t-23.04-18.432-15.872-27.648-5.632-33.28q0-35.84 21.504-61.44t51.2-25.6 51.2 25.6 21.504 61.44q0 17.408-5.632 33.28t-15.872 27.648-23.04 18.432-28.16 6.656zM373.76 634.88q-29.696 0-50.688-25.088t-20.992-60.928 20.992-61.44 50.688-25.6 50.176 25.6 20.48 61.44-20.48 60.928-50.176 25.088zM520.192 293.888q-51.2 0-97.28-9.728t-82.944-27.648-62.464-41.472-35.84-51.2q-1.024-1.024-1.024-2.048-1.024-3.072-1.024-8.704t2.56-11.776 7.168-11.264 12.8-6.144q25.6 27.648 62.464 50.176 31.744 19.456 79.36 35.328t114.176 15.872q67.584 0 116.736-15.872t81.92-35.328q37.888-22.528 63.488-50.176 17.408 5.12 19.968 18.944t0.512 18.944-3.072 7.168-1.024 3.072q-26.624 55.296-100.352 88.576t-176.128 33.28z"  horiz-adv-x="1024" />

    
    <glyph glyph-name="yingyongzhongxin1" unicode="&#58889;" d="M448.512 896q26.624 0 45.568-18.944t18.944-45.568l0-319.488q0-26.624-18.944-45.568t-45.568-18.944l-319.488 0q-26.624 0-45.568 18.944t-18.944 45.568l0 319.488q0 26.624 18.944 45.568t45.568 18.944l319.488 0zM961.536 896q26.624 0 45.056-18.944t18.432-45.568l0-319.488q0-26.624-18.432-45.568t-45.056-18.944l-320.512 0q-26.624 0-45.568 18.944t-18.944 45.568l0 319.488q0 26.624 18.944 45.568t45.568 18.944l320.512 0zM448.512 384q26.624 0 45.568-18.944t18.944-45.568l0-320.512q0-26.624-18.944-45.056t-45.568-18.432l-319.488 0q-26.624 0-45.568 18.432t-18.944 45.056l0 320.512q0 26.624 18.944 45.568t45.568 18.944l319.488 0zM961.536 384q26.624 0 45.056-18.944t18.432-45.568l0-320.512q0-26.624-18.432-45.056t-45.056-18.432l-320.512 0q-26.624 0-45.568 18.432t-18.944 45.056l0 320.512q0 26.624 18.944 45.568t45.568 18.944l320.512 0z"  horiz-adv-x="1026" />

    
    <glyph glyph-name="T" unicode="&#58890;" d="M851.968 728.064l0-109.568-281.6 0 0-587.776-116.736 0 0 587.776-281.6 0 0 109.568 679.936 0z"  horiz-adv-x="1024" />

    
    <glyph glyph-name="pubuliu" unicode="&#58891;" d="M209.92 896q25.6 0 43.008-17.408t17.408-43.008l0-149.504q0-25.6-17.408-43.008t-43.008-17.408l-149.504 0q-25.6 0-43.008 17.408t-17.408 43.008l0 149.504q0 25.6 17.408 43.008t43.008 17.408l149.504 0zM572.416 292.864q25.6 0 43.008-17.408t17.408-43.008l0-301.056q0-24.576-17.408-41.984t-43.008-17.408l-150.528 0q-25.6 0-43.008 17.408t-17.408 41.984l0 301.056q0 25.6 17.408 43.008t43.008 17.408l150.528 0zM209.92 565.248q25.6 0 43.008-17.92t17.408-42.496l0-573.44q0-24.576-17.408-41.984t-43.008-17.408l-149.504 0q-25.6 0-43.008 17.408t-17.408 41.984l0 573.44q0 24.576 17.408 42.496t43.008 17.92l149.504 0zM933.888 896q25.6 0 43.008-17.408t17.408-43.008l0-301.056q0-24.576-17.408-42.496t-43.008-17.92l-149.504 0q-25.6 0-43.008 17.92t-17.408 42.496l0 301.056q0 25.6 17.408 43.008t43.008 17.408l149.504 0zM933.888 414.72q25.6 0 43.008-17.92t17.408-43.52l0-421.888q0-24.576-17.408-41.984t-43.008-17.408l-149.504 0q-25.6 0-43.008 17.408t-17.408 41.984l0 421.888q0 25.6 17.408 43.52t43.008 17.92l149.504 0zM572.416 896q25.6 0 43.008-17.408t17.408-43.008l0-420.864q0-25.6-17.408-43.52t-43.008-17.92l-150.528 0q-25.6 0-43.008 17.92t-17.408 43.52l0 420.864q0 25.6 17.408 43.008t43.008 17.408l150.528 0z"  horiz-adv-x="1024" />

    
    <glyph glyph-name="xiangxia" unicode="&#58892;" d="M185.884 568.45 146.3 528.867 512.021 163.221 877.7 528.867 838.117 568.45 511.997 242.324Z"  horiz-adv-x="1024" />

    
    <glyph glyph-name="lianxiren" unicode="&#59022;" d="M704.041316 371.326489c-13.027711 0-23.078625-5.509481-30.077016-16.565281-6.998391-11.0558-10.498098-25.684986-10.498098-43.925419 0-20.138666 2.977821-35.139312 8.785084-44.966121 5.881964-9.827833 15.485693-14.740726 28.811186-14.740726 6.924713 0 13.028735 1.301645 18.240433 3.944845 5.210675 2.6432 10.423397 6.476505 15.857153 11.465123L735.160057 363.658855c-5.509481 2.681062-10.571776 4.652973-15.261589 5.844102S709.996958 371.326489 704.041316 371.326489zM855.060845 624.872089 168.939155 624.872089c-63.131853 0-114.353444-51.183729-114.353444-114.353444l0-457.413777c0-63.132876 51.221592-114.353444 114.353444-114.353444l76.236312 0 0 76.235288L359.528911 14.986711l0-76.235288 304.942177 0 0 76.235288 114.353444 0 0-76.235288 76.236312 0c63.132876 0 114.353444 51.220568 114.353444 114.353444L969.414289 510.518644C969.414289 573.688359 918.193721 624.872089 855.060845 624.872089zM455.829188 192.499637c0-40.314171-77.203336-49.470715-149.642159-49.470715-72.365144 0-150.535505 9.156544-150.535505 49.470715 0 7.966439 0 7.444553 0 15.449877 0 29.592992 57.102532 53.453423 102.516862 69.868277 3.275603 1.228991 18.9854 9.753131 10.272971 32.79594-22.556739 23.003923-37.670971 47.684022-37.670971 84.350107 0 56.209186 31.56695 86.956468 74.970482 86.956468s74.523297-30.747281 74.523297-86.956468c0-36.517705-14.219863-61.047378-36.628222-84.127026l0.148379 0c-8.635681-26.093285 5.136997-32.310893 7.296173-33.019021 47.722908-15.782451 104.749716-39.382962 104.749716-69.868277C455.829188 199.945213 455.829188 200.467099 455.829188 192.499637zM860.310406 261.626018c-5.2864-18.947538-11.762905-32.273031-19.431561-44.072775l-98.495268 0-3.051499 12.95301c-3.499707-2.308579-6.924713-4.502547-10.348696-6.550183-3.426029-2.047636-7.221472-3.797489-11.390421-5.174859-4.764514-1.675152-9.082866-2.90312-13.178137-3.684926-4.02057-0.74599-9.530051-1.155313-16.527418-1.155313-10.200316 0-19.729344 2.196015-28.662807 6.551206-8.859785 4.355191-16.527418 10.646478-22.930245 18.872836-6.402827 7.965415-11.390421 18.165732-15.038508 30.56104-3.722788 12.358469-5.583159 25.833365-5.583159 40.35101 0 14.889105 2.307555 28.439726 6.848988 40.648792 4.616134 12.173251 10.721179 22.707165 18.388812 31.603789 7.221472 8.077979 15.858176 14.517645 25.686009 19.24532 9.901511 4.764514 20.249183 7.109931 31.045063 7.109931 8.56098 0 16.228613-1.638313 23.003923-4.988618 6.700609-3.350304 11.837606-6.77531 15.485693-10.236132l0 11.762905 44.594661 0.186242 0-155.635663 30.300097 0c3.871167 8.487302 7.073092 18.463514 9.530051 30.039153 2.53166 11.576663 3.722788 23.340591 3.722788 35.251875 0 21.068851-2.90312 39.495526-8.859785 55.31584-5.880941 15.783475-14.145162 28.997428-24.791639 39.643905-10.79588 10.831696-23.376407 18.798135-37.81935 24.009833-14.517645 5.211698-30.151717 7.780197-46.90324 7.780197-15.931854 0-30.971385-2.866281-45.115524-8.673543-14.146185-5.770424-27.323299-14.368242-39.309284-25.796526-11.391445-11.0558-20.547988-24.64326-27.54638-40.835034-6.924713-16.192797-10.348696-34.097586-10.348696-53.752228 0-20.920472 3.276626-39.531342 9.827833-55.874565 6.476505-16.304338 15.412015-30.001291 26.876114-41.020252 11.019984-10.906397 23.898293-19.170618 38.566364-24.753777 14.666024-5.622044 30.001291-8.375761 46.00887-8.375761 11.316743 0 23.52581 0.967024 36.777625 2.866281 13.325493 1.935072 25.536606 4.503571 36.702923 7.741311l0-41.058115c-12.283768-2.680039-24.046672-4.689812-35.438117-5.954619-11.390421-1.303692-24.121374-1.937119-38.266535-1.937119-23.823592 0-45.936215 4.094248-66.334801 12.246929-20.323884 8.151657-37.893029 19.617803-52.485375 34.395368-14.81645 14.890128-26.356274 32.721239-34.618449 53.565986-8.264221 20.772093-12.43317 43.664475-12.43317 68.530816 0 23.638373 4.318352 45.674249 12.954033 66.073858 8.56098 20.472264 20.399609 38.266535 35.511795 53.565986 14.890128 15.038508 32.608675 26.801413 53.081962 35.325553 20.399609 8.562003 42.212404 12.842493 65.366753 12.842493 23.003923 0 44.446281-3.982708 64.321958-11.949146 19.953448-7.9296 37.075407-19.133779 51.519374-33.538861 14.667048-14.369266 26.13217-31.603789 34.396391-51.704592 8.263198-20.100804 12.431124-42.584887 12.431124-67.488067C868.349499 298.849804 865.66946 280.574578 860.310406 261.626018z"  horiz-adv-x="1024" />

    
    <glyph glyph-name="msnui-save" unicode="&#58910;" d="M950.5 690.32q7.721-8.816 8.816-20.381t1.093-18.195v-591.743q0-51.8-35.261-87.063t-93.657-35.261h-636.949q-59.524 0-94.221 29.762t-34.698 90.378v644.638q0 59.524 34.698 95.316t94.221 35.826h584.056q11.037 0 22.038-2.749t15.445-7.159zM755.461 729.991q-2.222 34.169-36.355 34.169h-480.456q-16.539 1.093-26.448-8.816t-9.909-23.132v-179.627q0-11.037 4.972-22.603t13.787-20.946 20.381-15.445 24.791-6.065h418.745q29.762 0 50.143 17.632t20.381 52.895v171.906zM755.461 234.091q0 47.392-48.485 48.485h-455.101q-25.354 0-37.484-13.223t-12.13-35.261v-160.903h553.203v160.903z"  horiz-adv-x="1024" />

    
    <glyph glyph-name="msnui-caller" unicode="&#58916;" d="M896.101 161.979c0-143.356-65.717-143.063-383.049-143.063-317.311 0-383.030-0.292-383.030 143.063 0 156.464 171.491 468.636 383.030 468.636 211.554 0 383.049-312.174 383.049-468.636zM514.172 563.522c-89.885 0-162.744-73.293-162.744-163.707 0-90.424 72.859-163.707 162.744-163.707 89.873 0 162.734 73.282 162.734 163.707 0.001 90.413-72.861 163.707-162.734 163.707zM173.064 443.015c66.717 107.44 182.049 222.063 339.189 222.063 157.1 0 279.926-124.047 335.593-221.112 28.769-48.168 84.011-43.069 108.093 0 15.474 32.229 63.827 302.198-443.683 302.198-513.207-0.686-460.177-278.937-442.156-302.2 31.918-48.81 92.050-23.925 102.968-0.948z"  horiz-adv-x="1024" />

    
    <glyph glyph-name="msnui-more" unicode="&#59001;" d="M169.002 489.682c-57.562 0-104.228-46.646-104.228-104.228 0-57.563 46.666-104.209 104.228-104.209s104.228 46.646 104.228 104.209c0 57.582-46.667 104.228-104.228 104.228zM501.431 489.682c-57.562 0-104.228-46.646-104.228-104.228 0-57.563 46.667-104.209 104.228-104.209s104.228 46.646 104.228 104.209c0 57.582-46.666 104.228-104.228 104.228zM854.638 489.682c-57.563 0-104.23-46.646-104.23-104.228 0-57.563 46.667-104.209 104.23-104.209s104.228 46.646 104.228 104.209c-0.001 57.582-46.666 104.228-104.228 104.228z"  horiz-adv-x="1024" />

    
    <glyph glyph-name="msnui-org-inverse" unicode="&#59023;" d="M512.281 737.68c91.882 0 166.375-69.994 166.375-156.345 0-25.917-6.752-50.347-18.64-71.88l134.655-98.195c16.669 11.023 36.97 17.52 58.901 17.52 56.601 0 102.508-43.124 102.508-96.337 0-53.198-45.906-96.322-102.508-96.322-56.616 0-102.523 43.124-102.523 96.322 0 12.002 2.356 23.479 6.625 34.074l-134.64 98.181c-22.287-18.697-49.99-31.82-80.605-37.081v-150.031c59.865-12.866 104.523-63.185 104.523-123.333 0-69.882-60.306-126.554-134.668-126.554-74.378 0-134.668 56.673-134.668 126.554 0 60.148 44.658 110.466 104.523 123.333v150.031c-30.628 5.263-58.32 18.386-80.605 37.081l-134.64-98.18c4.255-10.596 6.611-22.073 6.611-34.074 0-53.198-45.892-96.322-102.508-96.322-56.601 0-102.509 43.124-102.509 96.322 0 53.212 45.906 96.337 102.509 96.337 21.933 0 42.233-6.497 58.901-17.52l134.64 98.195c-11.874 21.533-18.626 45.962-18.626 71.88-0.002 86.35 74.491 156.345 166.375 156.345v0z"  horiz-adv-x="1024" />

    
    <glyph glyph-name="msnui-service-inverse" unicode="&#59053;" d="M272.16 832.396c-115.182 0-208.556-93.374-208.556-208.556s93.374-208.556 208.556-208.556h208.556v208.556c0 115.182-93.374 208.556-208.556 208.556zM962 623.84c0 115.182-93.374 208.556-208.556 208.556s-208.556-93.374-208.556-208.556v-208.556h208.556c115.182 0 208.556 93.374 208.556 208.556zM63.604 142.556c0-115.182 93.374-208.556 208.556-208.556s208.556 93.374 208.556 208.556v208.556h-208.556c-115.182 0-208.556-93.374-208.556-208.556zM753.444 351.113h-208.556v-208.556c0-115.182 93.374-208.556 208.556-208.556s208.556 93.374 208.556 208.556-93.374 208.556-208.556 208.556z"  horiz-adv-x="1024" />

    
    <glyph glyph-name="yingyongzhongxin" unicode="&#59120;" d="M362.773 519.722c-52.584 0-95.365-42.776-95.365-95.36 0-52.589 42.781-95.365 95.365-95.365h95.36v95.365c0 52.584-42.776 95.36-95.36 95.36zM267.409 106.482c0-52.584 42.781-95.356 95.365-95.356 52.589 0 95.36 42.776 95.36 95.356v95.365l-95.36-0c-52.584 0-95.365-42.781-95.365-95.365zM680.644 201.847h-95.36v-95.365c0-52.584 42.776-95.356 95.36-95.356s95.36 42.776 95.36 95.356c0.005 52.584-42.772 95.365-95.36 95.365zM512 792.617c-278.689 0-504.617-225.928-504.617-504.617 0-278.693 225.928-504.617 504.617-504.617 278.693 0 504.617 225.924 504.617 504.617 0 278.693-225.924 504.617-504.617 504.617zM500.517 106.482c0-76.074-61.665-137.744-137.744-137.744-76.074 0-137.744 61.669-137.744 137.744 0 76.079 61.669 137.748 137.744 137.748h137.744v-137.748zM500.517 286.618h-137.744c-76.074 0-137.744 61.665-137.744 137.744 0 76.070 61.669 137.744 137.744 137.744 76.079 0 137.744-61.674 137.744-137.744v-137.744zM680.644-31.261c-76.074 0-137.744 61.669-137.744 137.744v137.748h137.744c76.079 0 137.748-61.669 137.748-137.748 0-76.074-61.669-137.744-137.748-137.744zM680.644 286.618h-137.744v137.744c0 76.070 61.669 137.744 137.744 137.744 76.079 0 137.748-61.674 137.748-137.744 0-76.079-61.669-137.744-137.748-137.744zM680.644 519.722c-52.589 0-95.36-42.776-95.36-95.36v-95.365h95.36c52.589 0 95.36 42.772 95.36 95.365 0.005 52.584-42.772 95.36-95.36 95.36z"  horiz-adv-x="1024" />

    
    <glyph glyph-name="gongsixuanze" unicode="&#58884;" d="M817.522696 727.798379c8.271374 0 15.431922-3.023166 21.475997-9.069499 6.046333-6.045204 9.066113-13.204622 9.066113-21.475997l0-794.182902c0-8.271374-3.01978-15.430793-9.066113-21.475997-6.044075-6.047462-13.204622-9.070628-21.475997-9.070628L206.610513-127.476645c-8.272503 0-15.431922 3.023166-21.475997 9.070628-6.045204 6.045204-9.069499 13.204622-9.069499 21.475997L176.065017 697.252882c0 8.271374 3.024295 15.430793 9.069499 21.475997 6.044075 6.046333 13.204622 9.069499 21.475997 9.069499L817.522696 727.798379 817.522696 727.798379zM420.428987 590.347032l0-30.547754c0-4.455727 1.430303-8.115588 4.292038-10.977323 2.86738-2.861735 6.526111-4.297683 10.982967-4.297683l30.54211 0c4.456856 0 8.114459 1.435948 10.976194 4.297683 2.86738 2.861735 4.297683 6.520467 4.297683 10.977323l0 30.547754c0 4.454599-1.431432 8.114459-4.297683 10.975065-2.861735 2.862864-6.519338 4.298812-10.976194 4.298812l-30.54211 0c-4.455727 0-8.114459-1.434819-10.982967-4.298812C421.85929 598.460362 420.428987 594.800502 420.428987 590.347032L420.428987 590.347032zM420.428987 468.161661 420.428987 437.618422c0-4.456856 1.430303-8.114459 4.292038-10.975065 2.86738-2.868509 6.526111-4.298812 10.982967-4.298812l30.54211 0c4.456856 0 8.114459 1.430303 10.976194 4.298812 2.86738 2.860606 4.297683 6.518209 4.297683 10.975065l0 30.543238c0 4.455727-1.431432 8.11333-4.297683 10.98071-2.861735 2.861735-6.519338 4.292038-10.976194 4.292038l-30.54211 0c-4.455727 0-8.114459-1.430303-10.982967-4.292038C421.85929 476.27499 420.428987 472.617388 420.428987 468.161661L420.428987 468.161661zM420.428987 345.979676l0-30.547754c0-4.451212 1.430303-8.109943 4.292038-10.976194 2.86738-2.861735 6.526111-4.293167 10.982967-4.293167l30.54211 0c4.456856 0 8.114459 1.431432 10.976194 4.293167 2.86738 2.86738 4.297683 6.524982 4.297683 10.976194l0 30.547754c0 4.455727-1.431432 8.114459-4.297683 10.976194-2.861735 2.86738-6.519338 4.297683-10.976194 4.297683l-30.54211 0c-4.455727 0-8.114459-1.431432-10.982967-4.297683C421.85929 354.095263 420.428987 350.436532 420.428987 345.979676L420.428987 345.979676zM420.428987 223.799948l0-30.547754c0-4.454599 1.430303-8.114459 4.292038-10.976194 2.86738-2.866251 6.526111-4.297683 10.982967-4.297683l30.54211 0c4.456856 0 8.114459 1.431432 10.976194 4.297683 2.86738 2.861735 4.297683 6.520467 4.297683 10.976194l0 30.547754c0 4.451212-1.431432 8.111072-4.297683 10.977323-2.861735 2.861735-6.519338 4.293167-10.976194 4.293167l-30.54211 0c-4.455727 0-8.114459-1.431432-10.982967-4.293167C421.85929 231.909892 420.428987 228.25116 420.428987 223.799948L420.428987 223.799948zM359.339123 71.073596 359.339123 101.615706c0 4.454599-1.437077 8.114459-4.298812 10.975065-2.861735 2.86738-6.520467 4.298812-10.977323 4.298812l-30.546625 0c-4.455727 0-8.115588-1.431432-10.976194-4.298812-2.861735-2.860606-4.298812-6.519338-4.298812-10.975065l0-30.543238c0-4.456856 1.437077-8.115588 4.298812-10.981839 2.860606-2.861735 6.520467-4.293167 10.976194-4.293167l30.546625 0c4.456856 0 8.115588 1.431432 10.977323 4.293167C357.902047 62.95688 359.339123 66.61674 359.339123 71.073596L359.339123 71.073596zM359.339123 193.252194l0 30.547754c0 4.451212-1.437077 8.111072-4.298812 10.977323-2.861735 2.861735-6.520467 4.293167-10.977323 4.293167l-30.546625 0c-4.455727 0-8.115588-1.431432-10.976194-4.293167-2.861735-2.866251-4.298812-6.524982-4.298812-10.977323l0-30.547754c0-4.454599 1.437077-8.114459 4.298812-10.976194 2.860606-2.866251 6.520467-4.297683 10.976194-4.297683l30.546625 0c4.456856 0 8.115588 1.431432 10.977323 4.297683C357.902047 185.138864 359.339123 188.797596 359.339123 193.252194L359.339123 193.252194zM359.339123 315.43305l0 30.547754c0 4.455727-1.437077 8.114459-4.298812 10.976194-2.861735 2.86738-6.520467 4.297683-10.977323 4.297683l-30.546625 0c-4.455727 0-8.115588-1.431432-10.976194-4.297683-2.861735-2.861735-4.298812-6.520467-4.298812-10.976194l0-30.547754c0-4.451212 1.437077-8.109943 4.298812-10.976194 2.860606-2.861735 6.520467-4.293167 10.976194-4.293167l30.546625 0c4.456856 0 8.115588 1.431432 10.977323 4.293167C357.902047 307.323107 359.339123 310.981839 359.339123 315.43305L359.339123 315.43305zM359.339123 437.618422l0 30.543238c0 4.455727-1.437077 8.11333-4.298812 10.98071-2.861735 2.861735-6.520467 4.292038-10.977323 4.292038l-30.546625 0c-4.455727 0-8.115588-1.430303-10.976194-4.292038-2.861735-2.86738-4.298812-6.524982-4.298812-10.98071L298.241357 437.618422c0-4.456856 1.437077-8.114459 4.298812-10.975065 2.860606-2.868509 6.520467-4.298812 10.976194-4.298812l30.546625 0c4.456856 0 8.115588 1.430303 10.977323 4.298812C357.902047 429.503963 359.339123 433.161566 359.339123 437.618422L359.339123 437.618422zM359.339123 559.799278l0 30.547754c0 4.454599-1.437077 8.114459-4.298812 10.975065-2.861735 2.862864-6.520467 4.298812-10.977323 4.298812l-30.546625 0c-4.455727 0-8.115588-1.434819-10.976194-4.298812-2.861735-2.860606-4.298812-6.520467-4.298812-10.975065l0-30.547754c0-4.455727 1.437077-8.115588 4.298812-10.977323 2.860606-2.861735 6.520467-4.297683 10.976194-4.297683l30.546625 0c4.456856 0 8.115588 1.435948 10.977323 4.297683S359.339123 555.342422 359.339123 559.799278L359.339123 559.799278zM603.698578-51.112904l0 91.637618c0 4.454599-1.431432 8.114459-4.293167 10.977323-2.866251 2.866251-6.524982 4.297683-10.976194 4.297683l-152.727481 0c-4.455727 0-8.114459-1.431432-10.982967-4.297683-2.861735-2.861735-4.292038-6.521596-4.292038-10.977323l0-91.637618c0-4.454599 1.430303-8.114459 4.292038-10.976194 2.86738-2.861735 6.526111-4.297683 10.982967-4.297683l152.727481 0c4.450083 0 8.109943 1.434819 10.976194 4.297683C602.268274-59.226234 603.698578-55.567503 603.698578-51.112904L603.698578-51.112904zM603.698578 193.252194l0 30.547754c0 4.451212-1.431432 8.111072-4.293167 10.977323-2.866251 2.861735-6.524982 4.293167-10.976194 4.293167l-30.548883 0c-4.454599 0-8.114459-1.431432-10.976194-4.293167-2.866251-2.866251-4.297683-6.524982-4.297683-10.977323l0-30.547754c0-4.454599 1.431432-8.114459 4.297683-10.976194 2.861735-2.866251 6.520467-4.297683 10.976194-4.297683l30.548883 0c4.450083 0 8.109943 1.431432 10.976194 4.297683C602.268274 185.138864 603.698578 188.797596 603.698578 193.252194L603.698578 193.252194zM603.698578 315.43305l0 30.547754c0 4.455727-1.431432 8.114459-4.293167 10.976194-2.866251 2.86738-6.524982 4.297683-10.976194 4.297683l-30.548883 0c-4.454599 0-8.114459-1.431432-10.976194-4.297683-2.866251-2.861735-4.297683-6.520467-4.297683-10.976194l0-30.547754c0-4.451212 1.431432-8.109943 4.297683-10.976194 2.861735-2.861735 6.520467-4.293167 10.976194-4.293167l30.548883 0c4.450083 0 8.109943 1.431432 10.976194 4.293167C602.268274 307.323107 603.698578 310.981839 603.698578 315.43305L603.698578 315.43305zM603.698578 437.618422l0 30.543238c0 4.455727-1.431432 8.11333-4.293167 10.98071-2.866251 2.861735-6.524982 4.292038-10.976194 4.292038l-30.548883 0c-4.454599 0-8.114459-1.430303-10.976194-4.292038-2.866251-2.86738-4.297683-6.524982-4.297683-10.98071L542.606456 437.618422c0-4.456856 1.431432-8.114459 4.297683-10.975065 2.861735-2.868509 6.520467-4.298812 10.976194-4.298812l30.548883 0c4.450083 0 8.109943 1.430303 10.976194 4.298812C602.268274 429.503963 603.698578 433.161566 603.698578 437.618422L603.698578 437.618422zM603.698578 559.799278l0 30.547754c0 4.454599-1.431432 8.114459-4.293167 10.975065-2.866251 2.862864-6.524982 4.298812-10.976194 4.298812l-30.548883 0c-4.454599 0-8.114459-1.434819-10.976194-4.298812-2.866251-2.860606-4.297683-6.520467-4.297683-10.975065l0-30.547754c0-4.455727 1.431432-8.115588 4.297683-10.977323 2.861735-2.861735 6.520467-4.297683 10.976194-4.297683l30.548883 0c4.450083 0 8.109943 1.435948 10.976194 4.297683C602.268274 551.68369 603.698578 555.342422 603.698578 559.799278L603.698578 559.799278zM725.883949 71.073596 725.883949 101.615706c0 4.454599-1.431432 8.114459-4.296554 10.975065-2.862864 2.86738-6.520467 4.298812-10.976194 4.298812l-30.548883 0c-4.451212 0-8.111072-1.431432-10.977323-4.298812-2.861735-2.860606-4.292038-6.519338-4.292038-10.975065l0-30.543238c0-4.456856 1.430303-8.115588 4.292038-10.981839 2.866251-2.861735 6.524982-4.293167 10.977323-4.293167l30.548883 0c4.454599 0 8.11333 1.431432 10.976194 4.293167C724.452517 62.95688 725.883949 66.61674 725.883949 71.073596L725.883949 71.073596zM725.883949 193.252194l0 30.547754c0 4.451212-1.431432 8.111072-4.296554 10.977323-2.862864 2.861735-6.520467 4.293167-10.976194 4.293167l-30.548883 0c-4.451212 0-8.111072-1.431432-10.977323-4.293167-2.861735-2.866251-4.292038-6.524982-4.292038-10.977323l0-30.547754c0-4.454599 1.430303-8.114459 4.292038-10.976194 2.866251-2.866251 6.524982-4.297683 10.977323-4.297683l30.548883 0c4.454599 0 8.11333 1.431432 10.976194 4.297683C724.452517 185.138864 725.883949 188.797596 725.883949 193.252194L725.883949 193.252194zM725.883949 315.43305l0 30.547754c0 4.455727-1.431432 8.114459-4.296554 10.976194-2.862864 2.86738-6.520467 4.297683-10.976194 4.297683l-30.548883 0c-4.451212 0-8.111072-1.431432-10.977323-4.297683-2.861735-2.861735-4.292038-6.520467-4.292038-10.976194l0-30.547754c0-4.451212 1.430303-8.109943 4.292038-10.976194 2.866251-2.861735 6.524982-4.293167 10.977323-4.293167l30.548883 0c4.454599 0 8.11333 1.431432 10.976194 4.293167C724.452517 307.323107 725.883949 310.981839 725.883949 315.43305L725.883949 315.43305zM725.883949 437.618422l0 30.543238c0 4.455727-1.431432 8.11333-4.296554 10.98071-2.862864 2.861735-6.520467 4.292038-10.976194 4.292038l-30.548883 0c-4.451212 0-8.111072-1.430303-10.977323-4.292038-2.861735-2.86738-4.292038-6.524982-4.292038-10.98071L664.792957 437.618422c0-4.456856 1.430303-8.114459 4.292038-10.975065 2.866251-2.868509 6.524982-4.298812 10.977323-4.298812l30.548883 0c4.454599 0 8.11333 1.430303 10.976194 4.298812C724.452517 429.503963 725.883949 433.161566 725.883949 437.618422L725.883949 437.618422zM725.883949 559.799278l0 30.547754c0 4.454599-1.431432 8.114459-4.296554 10.975065-2.862864 2.862864-6.520467 4.298812-10.976194 4.298812l-30.548883 0c-4.451212 0-8.111072-1.434819-10.977323-4.298812-2.861735-2.860606-4.292038-6.520467-4.292038-10.975065l0-30.547754c0-4.455727 1.430303-8.115588 4.292038-10.977323 2.866251-2.861735 6.524982-4.297683 10.977323-4.297683l30.548883 0c4.454599 0 8.11333 1.435948 10.976194 4.297683C724.452517 551.68369 725.883949 555.342422 725.883949 559.799278L725.883949 559.799278zM725.883949 559.799278"  horiz-adv-x="1024" />

    
    <glyph glyph-name="lianxiren1" unicode="&#58894;" d="M511.280104 747.419146c-247.235894 0-447.679066-200.445218-447.679066-447.711811 0-247.235894 200.443172-447.680089 447.679066-447.680089 106.847493 0 204.822922 37.546128 281.780665 99.996458l49.785893 47.631834c71.931263 79.432097 116.145254 184.471408 116.145254 300.05282C958.991915 546.973928 758.542604 747.419146 511.280104 747.419146zM734.68729 62.493701c-0.073678 0-0.1361 0.023536-0.203638 0.023536l-0.024559-0.023536-446.325231 0-0.01842 0.023536c-0.067538 0-0.1361-0.023536-0.204661-0.023536-15.418154 0-27.926026 12.655228-27.926026 28.272927 0 116.340705 77.250408 214.273155 182.592618 244.573251-42.300408 24.284079-70.89363 70.195735-70.89363 122.93182 0 78.059843 62.505589 141.330866 139.611711 141.330866 77.114308 0 139.618874-63.271022 139.618874-141.330866 0-52.736085-28.593222-98.647741-70.894653-122.93182 105.34221-30.300097 182.587502-128.232546 182.587502-244.573251C762.607176 75.148929 750.105445 62.493701 734.68729 62.493701z"  horiz-adv-x="1024" />

    
    <glyph glyph-name="complete" unicode="&#58975;" d="M512 799.97c-282.748 0-511.97-229.223-511.97-511.97s229.223-512 511.97-512c282.777 0 512 229.252 512 512s-229.223 511.97-512 511.97zM512-96.030c-211.71 0-384.030 172.35-384.030 384.060 0 211.68 172.32 383.97 384.030 383.97 211.769 0 384.030-172.29 384.030-383.97-0.030-211.739-172.261-384.060-384.030-384.060zM742.537 493.075l-317.744-298.766-136.517 145.274-76.537-71.935 136.488-145.334-0.389-0.329 71.994-76.597 0.359 0.359 0.329-0.359 76.567 71.965-0.329 0.359 317.803 298.766z"  horiz-adv-x="1024" />

    
    <glyph glyph-name="miicon" unicode="&#58883;" d="M587.922157 711.084613l-167.822217 0c0 0 0-115.6336 0-271.176143-161.682379 0-309.038472 0-309.038472 0l0-94.14417c0 0 162.705686 0 309.038472 0 0-172.938748 0-385.369951 0-443.187775 125.866662 0 167.822217 44.688805 167.822217 158.998247 0 47.727001 0 167.532621 0 284.189528 120.750131 0 224.366024 0 244.168022 0 55.155181 0 81.147158 38.885636 81.147158 94.14417-22.580275 0-166.70272 0-325.31518 0C587.922157 595.451012 587.922157 711.084613 587.922157 711.084613zM123.362632-95.534452c111.451348 0 147.749042 29.263487 161.580049 129.337717 13.808494 100.069113 27.813462 227.02662 27.813462 227.02662L167.544901 260.829885C167.544901 260.829885 137.114844 4.055754 123.362632-95.534452zM723.463156 260.829885c0 0 14.004969-129.000026 27.813462-229.074256 13.820774-100.07423 55.996338-125.245516 161.591305-125.245516-13.745049 99.584066-44.192501 354.320795-44.192501 354.320795L723.463156 260.830909zM357.203448 489.859116c-12.7023 36.152385-31.144324 65.35038-47.074132 112.932072-29.358655 87.665619-51.616588 98.44308-174.098153 98.44308 21.358447-60.174498 32.262798-90.680279 52.515051-149.408845C214.740806 475.87052 261.624603 489.859116 357.203448 489.859116zM678.982082 489.859116c12.7023 36.152385 31.144324 65.35038 47.074132 112.932072 29.358655 87.665619 51.616588 98.44308 174.098153 98.44308-21.358447-60.174498-32.262798-90.680279-52.515051-149.408845C821.445748 475.87052 774.560928 489.859116 678.982082 489.859116z"  horiz-adv-x="1024" />

    
    <glyph glyph-name="da" unicode="&#58893;" d="M394.637 411.995599c-59.651701-156.484-169.190501-296.349399-326.675999-420.566399l-1.971698-197.576699c186.810599 105.6267 335.470399 261.140499 445.9794 467.511599 102.684801-204.399401 251.344601-362.855099 445.9794-473.3641l0 197.576699c-152.5719 116.392799-267.994499 258.1986-346.236499 426.4189l361.884899 0 0 146.719399-379.4737 0 0 152.5719-178.016199 0 0-152.5719-365.796999 0 0-146.719399 344.2648 0z"  horiz-adv-x="1024" />

    
    <glyph glyph-name="youxiaojiaobiao" unicode="&#58880;" d="M145.312-159.619l729.702-0.028c22.744 0 43.167 9.419 57.939 24.463 15.725 13.351 25.69 32.792 25.69 56.872l-0 731.995c0 44.941-36.424 81.335-81.334 81.335-44.942 0-81.337-36.395-81.337-81.335l2.567-534.733-552.067 552.042-115.029-115 552.998-552.968-539.128 0.027c-44.913 0-81.335-36.423-81.335-81.364-0-44.884 36.422-81.307 81.334-81.307z"  horiz-adv-x="1024" />

    
    <glyph glyph-name="unie62b" unicode="&#59062;" d="M1010.432 45.248l-383.968 768c-21.664 43.36-65.952 70.752-114.464 70.752s-92.8-27.392-114.464-70.752l-383.968-768c-19.84-39.68-17.728-86.816 5.6-124.576 23.328-37.696 64.512-60.672 108.864-60.672l767.904 0c44.384 0 85.568 22.976 108.864 60.672 23.328 37.76 25.44 84.896 5.632 124.576zM575.936 20c0-17.696-14.304-32-32-32l-64 0c-17.696 0-32 14.304-32 32l0 64c0 17.696 14.304 32 32 32l64 0c17.696 0 32-14.304 32-32l0-64zM575.936 276c0-17.696-14.304-32-32-32l-64 0c-17.696 0-32 14.304-32 32l0 320c0 17.664 14.304 32 32 32l64 0c17.696 0 32-14.336 32-32l0-320z"  horiz-adv-x="1024" />

    
    <glyph glyph-name="renshi" unicode="&#58900;" d="M511.670495 748.545806C264.748756 748.615391 64.408939 548.350275 64.117296 301.283226c0.653893-248.787226 201.482851-447.133643 447.320908-447.580828 246.323105-0.448208 447.37105 199.426005 447.612551 447.12648C959.293279 549.439072 758.221798 748.476221 511.670495 748.545806zM491.419266 300.730641c0-61.968353-0.041956-123.936707 0.097214-185.90506 0.00921-4.001127-0.88823-5.105275-4.973268-5.013177-13.087063 0.294712-26.188452 0.26299-39.277562 0.010233-3.738138-0.071631-4.431939 1.144056-4.425799 4.588505 0.101307 55.42124 0.020466 110.842481 0.172939 166.262698 0.01228 4.273327-0.809435 5.611811-5.371334 5.550413-20.703531-0.282433-41.413202-0.231267-62.117756-0.028653-3.913123 0.037862-5.063319-0.779759-5.052063-4.924149 0.159636-55.268768 0.038886-110.538559 0.225127-165.807327 0.01535-4.692882-1.201361-5.779633-5.752004-5.659907-12.781094 0.334621-25.579585 0.276293-38.363749 0.020466-3.906983-0.077771-4.682649 1.166569-4.676509 4.853541 0.11154 70.647013 0.081864 141.294027 0.081864 211.94104 0 53.594639 0.041956 107.189278-0.085958 160.782893-0.00921 3.891633 0.734734 5.214768 4.950755 5.112438 13.08604-0.317225 26.187429-0.257873 39.277562-0.025583 3.669576 0.065492 4.533246-1.025353 4.52506-4.579295-0.112564-50.396807 0.002047-100.793614-0.204661-151.190421-0.019443-4.827959 1.404999-5.680373 5.846148-5.629207 20.552082 0.239454 41.10928 0.220011 61.661362 0.008186 3.987824-0.040932 5.067412 0.904603 5.054109 4.995781-0.155543 50.396807-0.046049 100.793614-0.201591 151.190421-0.013303 4.219091 1.101077 5.307889 5.262864 5.215792 12.783141-0.281409 25.579585-0.25685 38.364773-0.00921 3.903913 0.075725 5.100158-0.753153 5.089925-4.943592C491.37117 425.276215 491.419266 363.002916 491.419266 300.730641zM676.417677 109.846172c-3.201925-0.032746-3.236718 2.186805-3.880377 4.036943-13.453407 38.70758-26.869974 77.428464-40.290635 116.148323-9.245572 26.673499-18.389836 53.382814-27.833929 79.985706-1.373277 3.867074-0.76134 6.469342 1.13894 9.982352 3.774977 6.979972 8.711406 9.429767 16.734126 8.964162 13.352099-0.774643 26.78197-0.143263 40.178071-0.270153 2.711761-0.025583 3.63376 0.591471 3.625574 3.502777-0.102331 37.297464-0.094144 74.595952-0.011256 111.89444 0.00614 2.720971-0.600681 3.659343-3.50994 3.640923-20.247136-0.12689-40.496319-0.191358-60.741409 0.037862-4.139274 0.047072-3.40761-2.275833-3.40761-4.614088-0.005117-58.459437-0.004093-116.91785-0.004093-175.377286 0-50.999534-0.053212-101.999069 0.101307-152.99758 0.01228-4.030803-0.937348-5.054109-4.968152-4.967128-13.238512 0.284479-26.488281 0.224104-39.730886 0.024559-3.304256-0.050142-3.947915 1.00284-3.945869 4.093225 0.075725 124.834146 0.075725 249.669316-0.002047 374.503463-0.002047 3.151783 0.782829 4.074805 4.01443 4.066619 41.560558-0.110517 83.121116-0.039909 124.681674-0.091074 14.495132-0.017396 26.055422-5.337565 32.695656-18.959817 2.446725-5.021364 3.215228-10.440793 3.217275-15.9646 0.01842-45.823652 0.080841-91.647303-0.021489-137.469931-0.046049-20.674878-12.971429-33.248242-35.483142-34.71157-5.300726-0.344854-10.642384-0.051165-16.645099-0.051165 20.947078-58.4666 41.74373-116.51262 62.817698-175.333284C708.370413 109.920874 692.39251 110.010925 676.417677 109.846172z"  horiz-adv-x="1024" />

    
    <glyph glyph-name="safe" unicode="&#59049;" d="M515.938-172.8c0 0-393.058 136.512-393.058 377.027v404.928l393.058 139.645 393.058-139.645v-404.928c0-240.515-393.058-377.027-393.058-377.027v0zM679.427 431.839l-196.182-195.517-107.675 107.297-65.386-65.157 173.061-172.454 261.568 260.652-65.386 65.18z"  horiz-adv-x="1024" />

    
    <glyph glyph-name="htmal5icon12" unicode="&#58930;" d="M811.272038 739.681792l-595.873246 0c-46.818305 0-85.124749-38.306444-85.124749-85.124749l0-535.616884c0-46.818305 38.306444-85.124749 85.124749-85.124749l595.873246 0c46.818305 0 85.124749 38.306444 85.124749 85.124749l0 535.616884C896.396787 701.375348 858.090343 739.681792 811.272038 739.681792zM318.595129 640.038374c42.952254 0 77.771271-34.819017 77.771271-77.771271s-34.819017-77.771271-77.771271-77.771271-77.771271 34.819017-77.771271 77.771271S275.642874 640.038374 318.595129 640.038374zM215.398792 161.502533l148.9678 197.609637 106.405425-127.687124 148.968823 191.530175 191.530175-261.45371L215.398792 161.50151z"  horiz-adv-x="1024" />

    
    <glyph glyph-name="dayin" unicode="&#58956;" d="M78.29604 594.848135l1023.926182 0c34.374471 0 28.739715 36.61361 11.638601 42.568243-17.101115 5.979239-207.403306 77.902345-240.49827 77.902345L819.131103 715.318724 819.131103 896 361.387159 896l0-180.681276-54.231449 0c-33.119569 0-223.397155-71.898501-240.49827-77.902345C49.58093 631.461745 43.921569 594.848135 78.29604 594.848135zM1114.279123 528.584391 66.239139 528.584391C33.119569 528.584391 0 489.436371 0 456.316801l0-210.823529c0-33.144175 33.119569-72.267589 66.239139-72.267589l119.412534 0L132.502884-127.926182l915.537101 0-53.173395 301.151865 119.43714 0c33.144175 0 66.239139 39.123414 66.239139 72.267589l0 210.823529C1180.542868 489.436371 1147.423299 528.584391 1114.279123 528.584391zM252.948866-7.455594l84.349097 391.4802L843.244906 384.024606l84.349097-391.4802L252.948866-7.455594z"  horiz-adv-x="1182" />

    
    <glyph glyph-name="o" unicode="&#58896;" d="M508.8256-52.30592c250.71616 0 454.00064 203.264 454.00064 453.98016 0 137.35936-61.05088 260.36224-157.47072 343.59296-1.82272 0.94208-3.85024 1.82272-5.91872 1.82272-7.65952 0-13.88544-6.18496-13.88544-13.84448 0-2.4576 0.69632-4.68992 1.82272-6.67648 0.63488-0.90112 4.58752-5.81632 5.79584-7.12704 0.90112-0.77824 5.87776-5.7344 5.77536-5.75488 10.8544-11.9808 17.53088-27.87328 17.53088-45.3632 0-37.39648-30.28992-67.70688-67.70688-67.70688-37.39648 0-67.74784 30.3104-67.74784 67.70688 0 17.48992 6.69696 33.3824 17.57184 45.38368-0.06144 0-0.18432 0-0.26624 0.02048 0.9216 0.7168 1.69984 1.51552 2.56 2.27328 1.26976 1.24928 2.41664 2.53952 3.7888 3.6864 9.58464 10.26048 15.52384 23.94112 15.52384 39.09632 0 27.93472-19.968 51.17952-46.3872 56.34048-0.63488 0.02048-1.26976 0.08192-1.9456 0.08192-60.17024 0-108.93312-48.76288-108.93312-108.9536 0-28.65152 11.22304-54.5792 29.32736-73.99424 3.3792-2.88768 11.8784-11.44832 11.75552-11.4688 20.60288-22.77376 33.21856-52.92032 33.21856-86.07744 0-70.94272-57.50784-128.45056-128.43008-128.45056-70.94272 0-128.45056 57.50784-128.45056 128.45056 0 33.15712 12.5952 63.2832 33.21856 86.07744-0.18432 0 8.2944 8.51968 11.24352 11.0592 18.3296 19.47648 29.696 45.568 29.696 74.42432 0 60.19072-48.78336 108.9536-108.9536 108.9536-0.47104 0-0.94208-0.06144-1.41312-0.06144-26.5216-5.07904-46.55104-28.3648-46.55104-56.36096 0-15.1552 5.95968-28.83584 15.52384-39.09632 1.3312-1.14688 2.51904-2.43712 3.76832-3.6864 0.86016-0.75776 1.65888-1.55648 2.56-2.27328C319.36512 713.728 319.2832 713.728 319.20128 713.728c10.87488-12.00128 17.57184-27.89376 17.57184-45.38368 0-37.39648-30.3104-67.70688-67.72736-67.70688-37.39648 0-67.70688 30.3104-67.70688 67.70688 0 17.48992 6.69696 33.3824 17.55136 45.3632C218.78784 713.728 223.78496 718.68416 224.6656 719.4624c1.20832 1.29024 5.14048 6.22592 5.77536 7.12704 1.1264 1.98656 1.8432 4.23936 1.8432 6.67648 0 7.65952-6.20544 13.84448-13.88544 13.84448-2.23232 0-4.46464-1.00352-6.36928-2.02752-96.27648-83.21024-157.22496-206.1312-157.22496-343.38816C54.82496 150.95808 258.08896-52.30592 508.8256-52.30592zM749.24032 543.37536c20.8896 0 37.84704-16.93696 37.84704-37.82656 0-20.91008-16.95744-37.84704-37.84704-37.84704-20.91008 0-37.84704 16.93696-37.84704 37.84704C711.39328 526.45888 728.33024 543.37536 749.24032 543.37536zM508.8256 342.54848c40.26368 0 72.9088-32.6656 72.9088-72.92928s-32.64512-72.92928-72.9088-72.92928c-40.28416 0-72.92928 32.6656-72.92928 72.92928S468.54144 342.54848 508.8256 342.54848zM268.3904 543.37536c20.8896 0 37.84704-16.93696 37.84704-37.82656 0-20.91008-16.95744-37.84704-37.84704-37.84704s-37.84704 16.93696-37.84704 37.84704C230.56384 526.45888 247.5008 543.37536 268.3904 543.37536z"  horiz-adv-x="1024" />

    
    <glyph glyph-name="iconfontunie62c" unicode="&#59033;" d="M928 768l-832 0c-53.024 0-96-42.976-96-96l0-576c0-52.992 42.976-96 96-96l832 0c53.024 0 96 43.008 96 96l0 576c0 53.024-42.976 96-96 96zM87.712 64.32l-23.392 23.424 263.968 263.936 23.392-23.424-263.968-263.936zM936.288 64.32l-263.968 263.936 23.392 23.424 263.968-263.936-23.392-23.424zM544 277.6l0-21.6-64 0 0 21.6-415.904 385.6 40.704 40.704 407.2-377.536 407.2 377.536 40.704-40.704-415.904-385.6z"  horiz-adv-x="1024" />

    
    <glyph glyph-name="qmi-fill" unicode="&#58940;" d="M511.878 894.518c-281.91 0-510.47-228.56-510.469-510.481 0-281.898 228.561-510.429 510.469-510.429 281.937 0 510.497 228.531 510.497 510.429 0 281.921-228.562 510.481-510.497 510.481zM627.548 546.48l82.917 82.884c5.863 6.255 14.196 10.173 23.449 10.173 17.752 0 32.14-14.39 32.14-32.14 0-9.368-4.008-17.799-10.404-23.674l-82.572-82.526c-5.874-6.415-14.316-10.437-23.701-10.437-17.753 0-32.139 14.39-32.139 32.141 0.001 9.32 3.969 17.707 10.309 23.579zM288.12 639.537c9.253 0 17.588-3.917 23.451-10.173l82.92-82.884c6.335-5.872 10.307-14.26 10.307-23.578 0-17.752-14.391-32.141-32.14-32.141-9.385 0-17.829 4.023-23.704 10.437l-0.021-0.023-82.546 82.548c-6.395 5.875-10.407 14.305-10.407 23.674 0 17.749 14.391 32.139 32.141 32.139zM394.566 222.803l-82.919-82.886c-5.863-6.254-14.197-10.172-23.451-10.172-17.751 0-32.141 14.39-32.141 32.139 0 9.369 4.010 17.8 10.405 23.675l82.57 82.525c5.876 6.413 14.318 10.433 23.703 10.433 17.751 0 32.14-14.388 32.14-32.138 0.001-9.316-3.968-17.705-10.307-23.576zM733.916 129.745c-9.253 0-17.587 3.917-23.449 10.172l-82.917 82.886c-6.339 5.87-10.308 14.26-10.308 23.576 0 17.751 14.39 32.138 32.139 32.138 9.384 0 17.826-4.021 23.702-10.433l0.024 0.021 82.546-82.546c6.396-5.875 10.404-14.305 10.404-23.675 0-17.749-14.389-32.139-32.14-32.139zM780.815 352.511v-0.006h-237.49v-239.267c0-0.046 0.004-0.090 0.004-0.135 0-17.823-14.451-32.271-32.275-32.271s-32.272 14.448-32.272 32.271l0 239.402c0 0-238.703-0.064-239.354-0.064-17.746 0-32.133 14.387-32.133 32.123 0 17.733 14.386 32.121 32.133 32.121v0.062h239.354v239.299h0.013c0 17.809 14.435 32.247 32.248 32.247 17.811 0 32.249-14.438 32.249-32.247h0.033v-239.301h237.489c17.745 0 32.129-14.385 32.129-32.114-0.001-17.734-14.385-32.119-32.129-32.119z"  horiz-adv-x="1024" />

    
    <glyph glyph-name="xiangshang" unicode="&#59419;" d="M822.592 217.642667c12.544 12.629333 12.544 33.130667 0 45.76L536.384 550.613333c-6.698667 6.741333-15.573333 9.6-24.384 9.173333-8.768 0.448-17.664-2.410667-24.384-9.173333L201.429333 263.402667c-12.565333-12.629333-12.565333-33.130667 0-45.76s32.981333-12.629333 45.546667 0L512 483.648l265.045333-266.005333C789.632 205.013333 810.005333 205.013333 822.592 217.642667z"  horiz-adv-x="1024" />

    
    <glyph glyph-name="jjlxr" unicode="&#58886;" d="M637.744889 135.175935l11.924587 161.958672c6.985088 46.896076-43.225477 85.659939-96.355535 85.659939l-52.77804 0c0.11768-4.462638 0.909719-26.252921-13.104459-35.530215 0 0 22.655999-109.891829 13.104459-145.417951-3.90903-14.725376-18.710131-52.142567-35.957957-51.791573-16.8559 0.23843-29.92352 37.263695-33.31885 51.791573-8.052396 35.881209 19.264762 145.417951 19.264762 145.417951-4.025687 1.382487-11.645225 7.934716-13.734816 35.530215L378.760416 382.794545l0 0c-53.286624 0-103.065354-39.47506-96.432283-87.078241l11.997242-160.381757c41.568744-41.371246 108.315938-72.276117 171.671894-72.276117C529.352203 63.056384 600.917122 96.844931 637.744889 135.175935zM465.996247 414.095435c54.078663 0 97.972359 43.852764 97.972359 97.931426 0 54.159504-43.892673 98.0532-97.972359 98.0532-54.236252 0-97.895611-43.892673-97.895611-98.0532C368.100636 457.948199 411.759995 414.095435 465.996247 414.095435zM955.941951 421.359886 829.072449 546.922626l-14.010085 14.090926c-2.526543 2.449795-6.119371 3.832282-9.43386 3.832282 0 0 0 0-0.279363 0-3.39533 0-6.907317-1.382487-9.353019-3.90903l-78.158081-78.158081-62.923098-63.671135c-3.787256-3.948939-5.012154-9.632381-2.918469-14.725376 2.012843-5.053086 7.105838-8.209986 12.43317-8.209986l0.076748 0 53.331649 0.23843 23.209608 0.11768c3.670599 0 7.696286-1.657756 10.146081-4.462638 2.526543-2.800789 3.751441-6.66991 3.39533-10.339486l-2.251274-22.223141c-6.90834-66.828035-36.948517-130.025379-84.314291-177.710424-57.239656-57.631582-131.606387-89.407286-210.002898-89.407286-75.312266 0-146.800437 29.842679-201.037712 83.643002-55.655578 55.025221-86.565565 128.683824-86.920652 207.080336-0.432859 78.509075 29.765931 152.3662 84.907809 207.90512 56.763818 57.316403 135.867434 90.315982 217.063711 90.315982 32.881898 0 65.012689-5.525853 94.936209-16.382109 5.760191-1.932002 11.641131-3.080152 17.841344-3.080152 14.248516 0 27.987425 5.727445 37.895075 15.792685 5.408173 5.408173 9.43386 11.879562 11.879562 19.22383 9.987468 27.550473-4.183276 58.024531-31.855522 67.814502-41.011043 14.802124-84.588537 22.223141-129.74704 22.223141-110.053512 0-216.986963-44.091194-293.28979-121.262808-155.131173-156.432819-153.987117-409.851529 2.566452-564.865022 74.010621-73.420173 171.630962-113.566522 275.326673-113.566522 1.855254 0 3.751441 0 5.327332 0 105.555058 1.224898 205.107401 43.896766 280.933367 119.843482 26.843368 26.961048 49.499367 57.510832 67.818595 90.74884 15.8285 29.564339 28.262694 60.906162 36.471656 93.513814 6.03853 24.592095 9.632381 49.891294 11.014868 75.275427l1.063215 19.219737c0.436952 7.02909 6.119371 12.712533 13.225209 12.712533l19.142989 0 54.079686-0.198521 0 0c5.489014 0 10.221806 3.237741 12.43317 8.330736C961.111694 411.727505 959.967638 417.608445 955.941951 421.359886z"  horiz-adv-x="1024" />

    
    <glyph glyph-name="iconfontzuojiantou" unicode="&#59048;" d="M402.752 749.248l-320-320c-24.992051-24.992051-24.992051-65.504051 0-90.496l320-320c24.992051-24.992051 65.504051-24.992051 90.496 0 24.992051 24.992051 24.992051 65.504051 0 90.496l-210.752 210.752 613.504 0c35.360051 0 64 28.640051 64 64 0 35.360051-28.640051 64-64 64l-613.504 0 210.752 210.752c12.48 12.512051 18.752 28.864 18.752 45.248s-6.240051 32.768-18.752 45.248c-24.992051 24.992051-65.504051 24.992051-90.496 0z"  horiz-adv-x="1024" />

    
    <glyph glyph-name="iconset0407" unicode="&#59166;" d="M277.333333 597.333333l384 0c12.8 0 21.333333 8.533333 21.333333 21.333333s-8.533333 21.333333-21.333333 21.333333L277.333333 640c-12.8 0-21.333333-8.533333-21.333333-21.333333S264.533333 597.333333 277.333333 597.333333zM469.333333 533.333333c0-12.8 8.533333-21.333333 21.333333-21.333333l256 0c12.8 0 21.333333 8.533333 21.333333 21.333333s-8.533333 21.333333-21.333333 21.333333L490.666667 554.666667C477.866667 554.666667 469.333333 546.133333 469.333333 533.333333zM746.666667 469.333333l-128 0c-12.8 0-21.333333-8.533333-21.333333-21.333333s8.533333-21.333333 21.333333-21.333333l128 0c12.8 0 21.333333 8.533333 21.333333 21.333333S759.466667 469.333333 746.666667 469.333333zM277.333333 341.333333l426.666667 0c12.8 0 21.333333 8.533333 21.333333 21.333333s-8.533333 21.333333-21.333333 21.333333L277.333333 384c-12.8 0-21.333333-8.533333-21.333333-21.333333S264.533333 341.333333 277.333333 341.333333zM277.333333 512l128 0c12.8 0 21.333333 8.533333 21.333333 21.333333s-8.533333 21.333333-21.333333 21.333333l-128 0c-12.8 0-21.333333-8.533333-21.333333-21.333333S264.533333 512 277.333333 512zM853.333333 768 576 768 576 810.666667c0 23.466667-19.2 42.666667-42.666667 42.666667l-42.666667 0c-23.466667 0-42.666667-19.2-42.666667-42.666667l0-42.666667L170.666667 768C147.2 768 128 748.8 128 725.333333l0-469.333333c0-23.466667 19.2-42.666667 42.666667-42.666667l277.333333 0 0-256c0-23.466667 19.2-42.666667 42.666667-42.666667l42.666667 0c23.466667 0 42.666667 19.2 42.666667 42.666667L576 213.333333l277.333333 0c23.466667 0 42.666667 19.2 42.666667 42.666667L896 725.333333C896 748.8 876.8 768 853.333333 768zM490.666667 810.666667l42.666667 0 0-42.666667-42.666667 0L490.666667 810.666667zM533.333333-42.666667l-42.666667 0L490.666667 213.333333l42.666667 0L533.333333-42.666667zM853.333333 256 170.666667 256 170.666667 725.333333l682.666667 0L853.333333 256zM277.333333 426.666667l256 0c12.8 0 21.333333 8.533333 21.333333 21.333333s-8.533333 21.333333-21.333333 21.333333L277.333333 469.333333c-12.8 0-21.333333-8.533333-21.333333-21.333333S264.533333 426.666667 277.333333 426.666667z"  horiz-adv-x="1024" />

    
    <glyph glyph-name="xingchenganpai" unicode="&#58970;" d="M512 833.143417c-247.50707 0-448.197882-200.623273-448.197882-448.197882s200.623273-448.197882 448.197882-448.197882 448.197882 200.690812 448.197882 448.197882S759.50707 833.143417 512 833.143417zM730.027665 265.880789 414.319284 265.880789 414.319284 573.493795 503.500419 573.493795 503.500419 350.878648 730.027665 350.878648Z"  horiz-adv-x="1024" />

    
    <glyph glyph-name="jiahao" unicode="&#59174;" d="M512-62.016611c-119.648434 0-232.1288 46.367961-316.736783 130.559656-84.640667 84.255342-131.263217 196.255772-131.263217 315.455235 0 119.168499 46.624271 231.199892 131.232254 315.424271 84.607983 84.191695 197.088348 130.559656 316.736783 130.559656s232.1288-46.367961 316.704099-130.559656c84.67163-84.224378 131.263217-196.255772 131.263217-315.391587 0.032684-119.199462-46.591587-231.232576-131.263217-315.455235C744.1288-15.615966 631.648434-62.016611 512-62.016611zM512 766.016611c-102.623626 0-199.071738-39.743475-271.583282-111.936783-72.480581-72.12794-112.416718-168.063432-112.416718-270.079828s39.903454-197.951888 112.384034-270.047144c72.511544-72.191587 168.959656-111.936783 271.583282-111.936783 102.592662 0 199.071738 39.743475 271.583282 111.936783 72.480581 72.160624 112.416718 168.063432 112.384034 270.079828 0 102.016396-39.903454 197.919204-112.384034 270.016181C711.071738 726.240452 614.592662 766.016611 512 766.016611zM736.00086 415.99914 544.00086 415.99914 544.00086 607.99914c0 17.664722-14.336138 32.00086-32.00086 32.00086s-32.00086-14.336138-32.00086-32.00086l0-192L288.00086 415.99914c-17.664722 0-32.00086-14.336138-32.00086-32.00086s14.336138-32.00086 32.00086-32.00086l192 0 0-192c0-17.695686 14.336138-32.00086 32.00086-32.00086s32.00086 14.303454 32.00086 32.00086L544.00258 351.99914l192 0c17.695686 0 32.00086 14.336138 32.00086 32.00086S753.696546 415.99914 736.00086 415.99914z"  horiz-adv-x="1024" />

    
    <glyph glyph-name="xiaoxi1" unicode="&#58994;" d="M64.004221 831.978894l0-703.571107 511.781012 0 255.698636-191.93438L831.48387 128.407788 959.44524 128.407788 959.44524 831.978894 64.004221 831.978894zM767.569188 512.180358 255.87925 512.180358 255.87925 640.108982l511.689938 0L767.569188 512.180358zM767.569188 320.26235 255.87925 320.26235 255.87925 448.190975l511.689938 0L767.569188 320.26235z"  horiz-adv-x="1024" />

    
    <glyph glyph-name="iconfontwenhao1" unicode="&#58897;" d="M512.01357 896c282.829128 0 512.019284-229.201583 512.019284-511.992144 0-282.780562-229.184442-512.007856-512.019284-512.007856C229.240151-128 0 101.223009 0 384.007856 0 666.775562 229.240151 896 512.01357 896L512.01357 896zM545.850219 207.658181c0.56423 32.283945 2.818292 55.640203 6.717906 69.998781 3.922469 14.382861 9.870451 27.078746 18.001074 38.154792 8.0792 11.051762 25.281782 28.284341 51.590604 51.590604 39.17612 34.689421 65.540651 64.179357 78.976463 88.411243 13.485807 24.2276 20.205142 50.714977 20.205142 79.40642 0 49.666509-19.128105 91.972319-57.438596 126.974566-38.304777 34.996534-89.589697 52.511941-153.901899 52.511941-60.7197 0-109.564862-16.309813-146.514059-48.896585-36.872062-32.613912-59.151284-79.590688-66.567692-140.896044l82.956069-9.870451c7.180717 45.765467 22.334931 79.40642 45.356936 100.972856 23.027719 21.509298 51.742018 32.283945 86.158609 32.283945 35.537908 0 65.66921-11.901678 90.208208-35.665039 24.511858-23.770503 36.76493-51.38491 36.76493-82.798942 0-17.33114-4.179586-33.356696-12.588753-47.998103-8.307749-14.691402-26.537371-34.355169-54.5146-58.99987C543.339039 398.175025 523.926676 379.3826 513.157742 366.50959 498.489195 348.865623 487.875961 331.351643 481.313754 313.991934c-8.977682-23.022005-13.464381-50.407864-13.464381-82.094726 0-5.390895 0.128559-13.492949 0.435671-24.261883L545.850219 207.658181 545.850219 207.658181zM555.313567 45.675654l0 92.000887L463.329821 137.676542l0-92.000887L555.313567 45.675654 555.313567 45.675654zM555.313567 45.675654"  horiz-adv-x="1025" />

    
    <glyph glyph-name="iconfonticonfonti2copycopy" unicode="&#59021;" d="M276.755-46.936c28.497-29.315 74.739-29.315 103.307 0l367.236 378.011c28.483 29.367 28.483 76.982 0 106.291l-367.236 377.997c-28.562 29.367-74.806 29.367-103.307 0-28.546-29.325-28.546-76.929 0-106.304l315.6-324.841-315.599-324.803c-28.545-29.367-28.544-76.973 0-106.356l0 0z"  horiz-adv-x="1024" />

    
    <glyph glyph-name="baohu" unicode="&#58927;" d="M510.577778 896c-12.8 0-25.6-4.266667-36.977778-11.377778C470.755556 883.2 392.533333 800.711111 315.733333 782.222222c-49.777778-12.8-105.244444-14.222222-132.266667-14.222222-17.066667 0-27.022222 0-28.444444 0-1.422222 0-2.844444 0-4.266667 0-17.066667 0-32.711111-5.688889-45.511111-17.066667C92.444444 739.555556 85.333333 722.488889 85.333333 705.422222l0-160.711111c0-593.066667 396.8-668.444444 413.866667-671.288889 4.266667 0 7.111111-1.422222 11.377778-1.422222 4.266667 0 7.111111 0 11.377778 1.422222C539.022222-123.733333 938.666667-48.355556 938.666667 544.711111L938.666667 705.422222c0 17.066667-7.111111 34.133333-21.333333 46.933333-12.8 11.377778-28.444444 17.066667-44.088889 17.066667-1.422222 0-2.844444 0-4.266667 0-1.422222 0-11.377778 0-28.444444 0-27.022222 0-81.066667 1.422222-130.844444 14.222222C644.266667 797.866667 568.888889 870.4 547.555556 884.622222 536.177778 891.733333 523.377778 896 510.577778 896L510.577778 896zM642.844444 540.444444c-9.955556-2.844444-18.488889 2.844444-21.333333 12.8l-7.111111 29.866667C597.333333 640 544.711111 674.133333 483.555556 658.488889c-61.155556-15.644444-88.177778-72.533333-72.533333-129.422222l11.377778-52.622222c2.844444-8.533333-2.844444-18.488889-12.8-21.333333-9.955556-2.844444-18.488889 2.844444-21.333333 12.8l-11.377778 52.622222c-19.911111 75.377778 17.066667 150.755556 98.133333 172.088889 79.644444 21.333333 152.177778-24.177778 173.511111-100.977778l7.111111-29.866667C657.066667 553.244444 651.377778 543.288889 642.844444 540.444444zM669.866667 142.222222 354.133333 142.222222c-38.4 0-69.688889 31.288889-69.688889 69.688889L284.444444 419.555556c0 38.4 31.288889 69.688889 69.688889 69.688889l315.733333 0c38.4 0 69.688889-31.288889 69.688889-69.688889l0-207.644444C739.555556 173.511111 708.266667 142.222222 669.866667 142.222222zM354.133333 453.688889c-19.911111 0-35.555556-15.644444-35.555556-34.133333l0-207.644444c0-18.488889 15.644444-34.133333 35.555556-34.133333l315.733333 0c19.911111 0 35.555556 15.644444 35.555556 34.133333L705.422222 419.555556c0 18.488889-15.644444 34.133333-35.555556 34.133333L354.133333 453.688889zM512 384c19.911111 0 35.555556-15.644444 35.555556-34.133333 0-18.488889-15.644444-34.133333-35.555556-34.133333-19.911111 0-35.555556 15.644444-35.555556 34.133333C476.444444 368.355556 492.088889 384 512 384zM512 349.866667c9.955556 0 17.066667-7.111111 17.066667-17.066667l0-69.688889c0-9.955556-8.533333-17.066667-17.066667-17.066667-9.955556 0-17.066667 7.111111-17.066667 17.066667l0 69.688889C494.933333 341.333333 502.044444 349.866667 512 349.866667z"  horiz-adv-x="1024" />

    
    <glyph glyph-name="duigou" unicode="&#58931;" d="M512 896C228.266667 896 0 667.733333 0 384c0-283.733333 228.266667-512 512-512 283.733333 0 512 228.266667 512 512C1024 667.733333 795.733333 896 512 896zM832 512 492.8 172.8C469.333333 149.333333 426.666667 149.333333 403.2 172.8L192 384c0 0-32 32 0 64s64 0 64 0l192-192 320 320c0 0 32 32 64 0S832 512 832 512z"  horiz-adv-x="1024" />

    
    <glyph glyph-name="quxiaoshoucang" unicode="&#58914;" d="M877.278357 520.605238l-219.339544 31.618115-98.800213 199.579501c-5.929036 11.857049-19.761066 19.760043-33.593096 19.760043s-25.689079-7.902994-33.593096-21.735024l-94.850252-201.558575-219.339544-31.614022c-13.83203-1.974981-25.689079-11.857049-29.640064-25.689079-3.953032-13.83203 0-27.66406 9.878998-37.544081L318.061986 297.314709 288.419875 76.000184c-1.974981-13.831007 3.953032-27.66406 13.831007-35.571147 5.929036-3.948939 13.83203-7.902994 21.736047-7.902994 5.928013 0 11.857049 1.979074 17.785062 3.954055L529.494443 141.209348l185.747471-102.755292c5.928013-1.973958 11.857049-3.948939 17.785062-3.948939 19.761066 0 35.5691 15.805988 35.5691 37.543058l0 7.902994-29.639041 219.339544 158.082388 158.082388c9.877975 9.882068 13.83203 23.714098 9.877975 37.546128C900.992455 508.752282 891.110387 518.630257 877.278357 520.605238L877.278357 520.605238zM367.462093 301.265694c1.974981 11.857049-1.978051 25.689079-11.857049 33.593096L203.450668 473.184205l213.411531 29.640064c11.857049 1.974981 23.710005 9.877975 29.639041 21.735024l79.043241 183.77249 86.944188-179.818435c5.928013-11.857049 15.810081-19.761066 29.642111-21.74014l207.482495-33.589003L701.409884 330.908828c-9.877975-7.904017-13.83203-21.735024-9.877975-33.593096l23.710005-205.507514-167.961386 98.801237c-9.878998 5.928013-23.711028 3.953032-35.5691-1.974981l-171.914418-94.850252L367.462093 301.265694 367.462093 301.265694z"  horiz-adv-x="1024" />

    
    <glyph glyph-name="jifen" unicode="&#58969;" d="M874.056001 746.048c-199.936 199.936-524.128 199.936-724.096-0.032s-199.936-524.096 0.032-724.032c199.968-199.968 524.128-199.968 724.064-0.064s199.968 524.16 0 724.128zM628.328001 255.904c-51.936-51.936-93.088-106.208-119.712-154.752-26.624 48.544-67.776 102.816-119.712 154.752s-106.208 93.088-154.752 119.712c48.544 26.624 102.816 67.776 154.752 119.712s93.088 106.208 119.712 154.752c26.624-48.544 67.776-102.816 119.712-154.752s106.208-93.088 154.752-119.712c-48.512-26.624-102.816-67.808-154.752-119.712z"  horiz-adv-x="1025" />

    
    <glyph glyph-name="yduifuxuankuangxuanzhong" unicode="&#59013;" d="M831.551408 831.37719 192.441429 831.37719c-70.301136 0-127.816061-57.516971-127.816061-127.819131l0-639.102816c0-70.308299 57.514925-127.833457 127.816061-127.833457l639.109979 0c70.293973 0 127.821177 57.525158 127.821177 127.833457L959.372585 703.55806C959.372585 773.860219 901.846404 831.37719 831.551408 831.37719zM646.217353 409.560142c-108.652606-159.77903-204.521047-345.115132-204.521047-345.115132L192.444499 345.64853l63.915705 70.303182 153.384389-146.993842c0 0 76.695776 127.822201 178.950671 236.468666 102.261035 108.652606 223.688595 198.12743 223.688595 198.12743l19.170618-63.915705C831.553455 639.639285 729.29856 530.991796 646.217353 409.560142z"  horiz-adv-x="1024" />

    
    <glyph glyph-name="jiahao1" unicode="&#58911;" d="M960.621531 320.208115 571.769268 320.208115l0-382.755404-120.688733 0L451.080535 320.208115 64.875566 320.208115 64.875566 447.792908l386.204969 0L451.080535 830.548312l120.688733 0 0-382.755404 388.853285 0L960.622554 320.208115z"  horiz-adv-x="1024" />

    
    <glyph glyph-name="biaodan2" unicode="&#59158;" d="M768 832 192 832C121.6 832 64 774.4 64 704l0-576c0-70.4 57.6-128 128-128l576 0c70.4 0 128 57.6 128 128L896 704C896 774.4 838.4 832 768 832zM640 224c0-17.92-14.08-32-32-32l-320 0C270.08 192 256 206.08 256 224l0 0C256 241.92 270.08 256 288 256l320 0C625.92 256 640 241.92 640 224L640 224zM256 416C256 433.92 270.08 448 288 448l256 0C561.92 448 576 433.92 576 416 576 398.08 561.92 384 544 384l-256 0C270.08 384 256 398.08 256 416zM672 576l-384 0C270.08 576 256 590.08 256 608 256 625.92 270.08 640 288 640l384 0C689.92 640 704 625.92 704 608 704 590.08 689.92 576 672 576z"  horiz-adv-x="1024" />

    
    <glyph glyph-name="xinjiantianjiabiaodanyemian" unicode="&#59306;" d="M640 608 640 832 192 832C121.344 832 64 774.656 64 704l0-704c0-70.656 57.344-128 128-128l576 0c70.656 0 128 57.344 128 128L896 576l-224 0C654.336 576 640 590.336 640 608zM704 352C704 334.336 689.664 320 672 320L512 320l0-160C512 142.336 497.664 128 480 128S448 142.336 448 160L448 320 288 320C270.336 320 256 334.336 256 352S270.336 384 288 384L448 384 448 544C448 561.664 462.336 576 480 576S512 561.664 512 544L512 384l160 0C689.664 384 704 369.664 704 352zM704 832l0-192 192 0L704 832z"  horiz-adv-x="1024" />

    
    <glyph glyph-name="caiwurenminbizhifu2" unicode="&#59344;" d="M480 832C215.04 832 0 616.96 0 352 0 87.04 215.04-128 480-128c264.96 0 480 215.04 480 480C960 616.96 744.96 832 480 832zM672 384C689.92 384 704 369.92 704 352 704 334.08 689.92 320 672 320L512 320l0-128 160 0c17.92 0 32-14.08 32-32 0-17.92-14.08-32-32-32L512 128l0-96C512 14.08 497.92 0 480 0 462.08 0 448 14.08 448 32L448 128 288 128C270.08 128 256 142.08 256 160 256 177.92 270.08 192 288 192L448 192 448 320 288 320C270.08 320 256 334.08 256 352 256 369.92 270.08 384 288 384L448 384 448 405.12 264.96 588.16c-12.16 12.16-12.16 31.36 0 42.88 12.16 12.16 31.36 12.16 42.88 0l171.52-171.52 173.44 173.44c12.16 12.16 32 12.16 44.16 0 12.16-12.16 12.16-32 0-44.16L512 403.84 512 384 672 384z"  horiz-adv-x="1024" />

    
    <glyph glyph-name="chakanyanjingshishifenxi2" unicode="&#59346;" d="M987.52 528.64c-108.16 146.56-266.88 239.36-444.16 239.36-177.28 0-335.36-92.8-444.16-239.36-48-64.64-48-160.64 0-225.28C208 156.8 366.72 64 543.36 64c177.28 0 335.36 92.8 444.16 239.36C1035.52 368 1035.52 464 987.52 528.64zM544 192C420.48 192 320 292.48 320 416S420.48 640 544 640C667.52 640 768 539.52 768 416S667.52 192 544 192zM544 576C455.68 576 384 504.32 384 416S455.68 256 544 256C632.32 256 704 327.68 704 416S632.32 576 544 576z"  horiz-adv-x="1024" />

    
    <glyph glyph-name="kaiguan1" unicode="&#59096;" d="M960 672 64 672c-35.344 0-64-28.656-64-64l0-448c0-35.344 28.656-64 64-64l896 0c35.344 0 64 28.656 64 64L1024 608C1024 643.344 995.344 672 960 672zM976 192c0-35.344-12.656-48-48-48L96 144c-35.344 0-48 12.656-48 48L48 576c0 35.344 12.656 48 48 48l832 0c35.344 0 48-12.656 48-48L976 192zM864 576 608 576c-35.344 0-64-28.656-64-64l0-256c0-35.344 28.656-64 64-64l256 0c35.344 0 64 28.656 64 64L928 512C928 547.344 899.344 576 864 576z"  horiz-adv-x="1024" />

    
    <glyph glyph-name="kaiguan2" unicode="&#59097;" d="M960 672 64 672c-35.344 0-64-28.656-64-64l0-448c0-35.344 28.656-64 64-64l896 0c35.344 0 64 28.656 64 64L1024 608C1024 643.344 995.344 672 960 672zM976 192c0-35.344-12.656-48-48-48L96 144c-35.344 0-48 12.656-48 48L48 576c0 35.344 12.656 48 48 48l832 0c35.344 0 48-12.656 48-48L976 192zM416 576 160 576c-35.344 0-64-28.656-64-64l0-256c0-35.344 28.656-64 64-64l256 0c35.344 0 64 28.656 64 64L480 512C480 547.344 451.344 576 416 576z"  horiz-adv-x="1024" />

    
    <glyph glyph-name="hetongguizeguankong2" unicode="&#58987;" d="M777.481481 289.185185c53.096296 0 102.4-18.962963 140.325926-49.303704L917.807407 634.311111c0 18.962963-11.377778 49.303704-26.548148 64.474074l-166.874074 170.666667C709.214815 884.622222 682.666667 896 659.911111 896L94.814815 896C53.096296 896 18.962963 861.866667 18.962963 820.148148l0-826.785185c0-41.718519 34.133333-75.851852 75.851852-75.851852l512 0c-34.133333 37.925926-56.888889 91.022222-56.888889 147.911111C549.925926 186.785185 652.325926 289.185185 777.481481 289.185185zM640.948148 801.185185c0 22.755556 11.377778 26.548148 26.548148 11.377778l170.666667-170.666667c15.17037-15.17037 11.377778-26.548148-11.377778-26.548148l-109.985185 0c-41.718519 0-75.851852 34.133333-75.851852 75.851852L640.948148 801.185185zM163.081481 710.162963l337.540741 0c15.17037 0 26.548148-11.377778 26.548148-26.548148 0-15.17037-11.377778-26.548148-26.548148-26.548148L163.081481 657.066667c-15.17037 0-26.548148 11.377778-26.548148 26.548148C136.533333 698.785185 147.911111 710.162963 163.081481 710.162963zM163.081481 558.459259l618.192593 0c15.17037 0 26.548148-11.377778 26.548148-26.548148 0-15.17037-11.377778-26.548148-26.548148-26.548148L163.081481 505.362963c-15.17037 0-26.548148 11.377778-26.548148 26.548148C136.533333 547.081481 147.911111 558.459259 163.081481 558.459259zM136.533333 380.207407c0 15.17037 11.377778 26.548148 26.548148 26.548148l451.318519 0c15.17037 0 26.548148-11.377778 26.548148-26.548148 0-15.17037-11.377778-26.548148-26.548148-26.548148L163.081481 353.659259C147.911111 353.659259 136.533333 365.037037 136.533333 380.207407zM777.481481 251.259259c-106.192593 0-189.62963-83.437037-189.62963-189.62963 0-106.192593 83.437037-189.62963 189.62963-189.62963 106.192593 0 189.62963 83.437037 189.62963 189.62963C967.111111 167.822222 883.674074 251.259259 777.481481 251.259259zM777.481481-86.281481c-83.437037 0-151.703704 68.266667-151.703704 151.703704 0 83.437037 68.266667 151.703704 151.703704 151.703704s151.703704-68.266667 151.703704-151.703704C929.185185-21.807407 860.918519-86.281481 777.481481-86.281481zM879.881481 107.140741l-53.096296 7.585185-26.548148 49.303704c-7.585185 15.17037-30.340741 15.17037-37.925926 0l-26.548148-49.303704-53.096296-7.585185c-7.585185 0-15.17037-7.585185-18.962963-15.17037-3.792593-7.585185 0-15.17037 7.585185-18.962963l41.718519-37.925926L701.62963-21.807407c0-7.585185 3.792593-15.17037 7.585185-18.962963s15.17037-7.585185 22.755556-3.792593l49.303704 26.548148 49.303704-26.548148c3.792593-3.792593 7.585185-3.792593 7.585185-3.792593 7.585185 0 7.585185 3.792593 11.377778 3.792593 7.585185 7.585185 7.585185 11.377778 7.585185 18.962963L853.333333 27.496296l41.718519 37.925926c3.792593 7.585185 3.792593 18.962963 3.792593 26.548148C891.259259 99.555556 887.466667 103.348148 879.881481 107.140741z"  horiz-adv-x="1024" />

    
    <glyph glyph-name="caigoudingdan" unicode="&#59015;" d="M342.199 77.602c13.2 0 25.6-2.4 37.2-7.2 11.8-4.8 22-11.6 31-20.2 9-8.6 15.8-18.8 20.6-30.6 4.8-11.8 7.2-24.2 7.2-37.2s-2.4-25.4-7.2-37.2c-4.8-11.8-11.8-22-20.6-30.6-9-8.6-19.2-15.4-31-20.6-11.8-5.2-24.2-7.8-37.2-7.8-13.8 0-26.4 2.6-37.8 7.8s-21.6 12-30.6 20.6-15.8 18.8-20.6 30.6c-4.8 11.8-7.2 24.2-7.2 37.2s2.4 25.6 7.2 37.2c4.8 11.8 11.8 21.8 20.6 30.6 9 8.6 19.2 15.4 30.6 20.2S328.399 77.602 342.199 77.602L342.199 77.602zM772.198 75.602c13.2 0 25.6-2.4 37.8-7.2 12-4.8 22.4-11.6 31-20.2s15.6-18.8 20.6-30.6c5.2-11.8 7.8-24.2 7.8-37.2 0-13-2.6-25.4-7.8-37.2-5.2-11.8-12-22-20.6-30.4-8.6-8.6-19-15.4-31-20.6-12-5.2-24.6-7.8-37.8-7.8s-25.6 2.6-37.2 7.8c-11.8 5.2-21.8 12-30.6 20.6-8.6 8.6-15.6 18.8-20.6 30.4-5.2 11.6-7.8 24-7.8 37.2s2.6 25.6 7.8 37.2c5.2 11.6 12 21.8 20.6 30.6 8.6 8.6 18.8 15.4 30.6 20.2C746.798 73.202 759.198 75.602 772.198 75.602L772.198 75.602zM945.998 662.801c19.2 0 34.2-2.6 45-7.8 10.6-5.2 18.2-11.6 22.8-19.2s6.6-15.6 6.2-24.2c-0.4-8.6-1.6-16-3.6-22.2-2-6.2-6.4-19-13-38.2s-14-40.4-22.2-63.6c-8.2-23.2-16.4-46-24.2-68.8-8-22.8-14-40.6-18-53.8-9-27.6-20.4-46.6-34.2-57.4-13.8-10.6-30.6-16-50.6-16L311.199 291.601l15.6-93 520.999 0c33 0 49.6-14.2 49.6-42.4 0-13.8-3.2-25.6-9.8-35.6-6.6-10-19.4-15-38.8-15L306.999 105.601c-13.8 0-25.4 3-34.6 9.2-9.4 6.2-17 14.2-23.2 24.2-6.2 10-11.2 20.8-15 32.6-3.8 11.8-6.8 22.8-8.8 33-0.6 4.2-2.6 14.2-5.6 30-3.2 15.8-7 35.6-11.4 59.4-4.4 23.8-9.4 50.4-15 79.6-5.6 29.2-11 58.8-16.6 88.4-13.2 69.6-28 147.2-44.4 232.599L54.8 694.6c-10.4 0-19 2.6-25.8 7.8-7 5.4-12.6 11.6-17.2 18.8s-7.6 15-9.2 23.2C0.8 752.8 0 760.2 0 767.2c0 13.8 4.6 25.2 14 34.2s21.8 13.4 37.8 13.4l104.4 0c13.8 0 24.8-2 33-6.2s14.8-9.4 19.6-15.6c4.8-6.2 8.2-12.8 10.4-19.6 2-7 3.8-12.8 5.2-17.6 1.4-5.6 2.8-13.2 4.2-23.2 1.4-10 2.8-20.2 4.2-30.4 2-12.4 4.2-25.6 6.2-39.4L945.998 662.8 945.998 662.801z"  horiz-adv-x="1024" />

    
    <glyph glyph-name="zongheyewudingdan" unicode="&#59019;" d="M800.323-102.627 218.872-102.627c-52.602 0-135.1 66.15-135.1 135.02L83.772 581.476c0 57.977 59.385 135.005 122.8 135.005l73.54 0 0-130.797 458.126 0L738.238 716.48l64.34 0c63.43 0 132.845-58.667 132.845-135.47l0-552.744C935.423-51.508 863.758-102.627 800.323-102.627L800.323-102.627 800.323-102.627zM771.618 437.819c0 9.02-7.33 16.427-16.35 16.427L263.927 454.246c-9.022 0-16.347-7.408-16.347-16.427l0-32.755c0-9.035 7.325-16.345 16.347-16.345l491.341 0c9.02 0 16.35 7.307 16.35 16.345L771.618 437.819 771.618 437.819zM771.618 274.092c0 9.02-7.33 16.345-16.35 16.345L263.927 290.437c-9.022 0-16.347-7.325-16.347-16.345l0-32.755c0-9.12 7.325-16.425 16.347-16.425l491.341 0c9.02 0 16.35 7.305 16.35 16.425L771.618 274.092 771.618 274.092zM771.618 110.282c0 9.02-7.33 16.35-16.35 16.35L263.927 126.632c-9.022 0-16.347-7.33-16.347-16.35l0-32.755c0-9.035 7.325-16.345 16.347-16.345l491.341 0c9.02 0 16.35 7.31 16.35 16.345L771.618 110.282 771.618 110.282zM476.449 651.046 345.557 651.046 345.557 781.86l65.447 0c0 36.095 29.33 65.445 65.445 65.445l65.445 0c36.095 0 65.445-29.35 65.445-65.445l65.445 0 0-130.815L476.446 651.045 476.449 651.045zM509.206 792.128c-22.65 0-40.927-18.377-40.927-40.942 0-22.552 18.28-40.85 40.927-40.85 22.562 0 40.862 18.3 40.862 40.85C550.069 773.75 531.769 792.128 509.206 792.128L509.206 792.128 509.206 792.128z"  horiz-adv-x="1024" />

    
    <glyph glyph-name="tishi" unicode="&#58949;" d="M511.999488 768.678196c-212.087373 0-384.018164-171.915441-384.018164-384.018164 0-212.069977 171.931814-384.018164 384.018164-384.018164s384.018164 171.948187 384.018164 384.018164C896.017652 596.762755 724.086861 768.678196 511.999488 768.678196zM511.999488 179.045071c-24.734334 0-44.774763 20.025079-44.774763 44.686758 0 24.665773 20.040429 44.655036 44.774763 44.655036s44.791136-19.989263 44.791136-44.655036C556.790624 199.07015 536.733822 179.045071 511.999488 179.045071zM556.790624 372.621858c0-24.663726-20.057825-44.669362-44.791136-44.669362s-44.774763 20.006659-44.774763 44.669362l0 208.478172c0 24.663726 20.040429 44.654013 44.774763 44.654013s44.791136-19.990287 44.791136-44.654013L556.790624 372.621858z"  horiz-adv-x="1024" />

    
    <glyph glyph-name="qizhi" unicode="&#58901;" d="M827.188542 828.018699l-315.188542 0-315.188542 0c-26.906813 0-53.812603-23.063275-53.812603-53.812603l0-787.971355c0-19.218714 3.843538-34.593889 23.063275-42.281989 23.063275-11.530614 53.812603 3.843538 92.25003 23.063275 57.656141 30.749328 146.062634 73.031317 203.718775 99.93813 30.749328 15.375176 69.187779 15.375176 103.781668 0 53.812603-26.906813 142.220119-69.187779 199.87626-99.93813 38.437427-19.218714 69.186755-30.749328 92.25003-23.063275 15.375176 7.688099 23.063275 26.906813 23.063275 42.281989L881.002169 774.206096C877.157607 804.956448 854.094332 828.018699 827.188542 828.018699L827.188542 828.018699zM754.156202 485.924367l-69.187779-88.406492c-7.688099-11.531638-15.375176-34.593889-15.375176-49.969065l3.843538-115.313306c0-15.375176-11.530614-23.063275-26.906813-19.218714l-107.625206 38.437427c-15.375176 3.843538-38.437427 3.843538-53.812603 0l-107.625206-38.437427c-15.375176-3.843538-26.906813 3.843538-26.906813 19.218714l3.843538 115.313306c0 15.375176-7.688099 38.437427-15.375176 49.969065l-69.187779 88.406492c-7.688099 11.531638-3.843538 26.90579 11.530614 30.750351l111.468744 30.750351c15.375176 3.843538 34.593889 19.218714 42.281989 30.750351l65.344241 96.093569c7.688099 11.531638 23.063275 11.531638 30.749328 0l65.344241-96.093569c7.688099-11.531638 26.906813-26.90579 42.281989-30.750351l111.468744-30.750351C758.000763 512.830157 761.844302 497.454982 754.156202 485.924367L754.156202 485.924367z"  horiz-adv-x="1024" />

    
    <glyph glyph-name="yundou" unicode="&#58898;" d="M971.9296 131.2768 35.9936 131.2768C16.128 131.2768 0 115.1488 0 95.2832c0-19.8656 16.128-35.9936 35.9936-35.9936l935.936 0c19.8656 0 35.9936 16.128 35.9936 35.9936C1007.9232 115.1488 991.7952 131.2768 971.9296 131.2768zM935.936 455.2704 318.6688 455.2704l215.9616 215.9616 307.8144 0c19.8656 0 35.9936 16.128 35.9936 35.9936s-16.128 35.9936-35.9936 35.9936l-323.9936 0c-2.2528 0-4.2496-0.8704-6.4-1.28L507.8016 746.24 496.896 735.3344c-2.5088-1.8944-4.608-4.0448-6.5024-6.5024L216.832 455.2704 215.9616 455.2704C145.8688 384.3584 83.2512 322.9184 0 239.2576c0-39.7312 32.256-71.9872 71.9872-71.9872L935.936 167.2704c39.7312 0 71.9872 32.256 71.9872 71.9872l0 143.9744C1007.9232 423.0144 975.6672 455.2704 935.936 455.2704z"  horiz-adv-x="1024" />

    
    <glyph glyph-name="shezhi" unicode="&#58941;" d="M940.977925 706.499007C940.977925 706.499007 651.698981 628.311425 597.837835 895.558722L430.253173 895.558722C430.253173 895.558722 384.03379 627.892997 88.44676 707.140217 2.993285 569.882809 0.081531 565.598558 0 565.504305 0.109625 565.431472 231.366596 409.720368 0 198.274014L89.777429 55.995463C89.777429 55.995463 345.257589 162.203475 428.928392-127.936004L598.503202-127.936004C598.503202-127.936004 651.698981 138.674366 938.980418 59.845578 1020.775306 194.431042 1022.107446 195.713458 1022.107446 195.713458 1022.107446 195.713458 805.21233 375.91477 1023.438115 569.347278 939.645784 703.932741 940.977925 706.499007 940.977925 706.499007ZM511.968706 191.602719C405.935909 191.602719 319.980001 277.55768 319.980001 383.593631 319.980001 489.623761 405.935909 575.578721 511.968706 575.578721 618.000095 575.578721 703.956003 489.623761 703.956003 383.593631 703.956003 277.55768 618.000095 191.602719 511.968706 191.602719L511.968706 191.602719Z"  horiz-adv-x="1024" />

    
    <glyph glyph-name="feiji" unicode="&#59045;" d="M972.8 696.32l-921.6-215.04 167.936-159.744 648.192 320.512L281.6 259.072l0-187.392 94.208 93.184 94.208-93.184L972.8 696.32zM972.8 696.32"  horiz-adv-x="1024" />

    
    <glyph glyph-name="xunzhang" unicode="&#59007;" d="M40.394588 896l330.122661 0 235.802706-419.787682-282.959865 0L40.394588 896zM512.183191 431.937366c-156.332507 0-283.065083-125.34596-283.065083-279.968683 0-154.621784 126.732576-279.968683 283.065083-279.968683s283.066022 125.34596 283.066022 279.968683C795.249214 306.590467 668.516638 431.937366 512.183191 431.937366zM603.809767 0.427329 510.491256 68.823388l-95.016082-65.826686 33.974912 113.032696-89.81815 73.237003 114.313155 1.470226 39.5148 111.081475 36.669231-112.122377 114.233303-4.586355-91.644425-70.761574L603.809767 0.427329zM606.319955 896l377.285457 0L653.482751 476.212318l-141.482751 269.864047L606.319955 896"  horiz-adv-x="1024" />

    
    <glyph glyph-name="icloading" unicode="&#59089;" d="M128 384c0 211.2 172.8 384 384 384s384-172.8 384-384c0-38.4-25.6-64-64-64s-64 25.6-64 64c0 140.8-115.2 256-256 256S256 524.8 256 384s115.2-256 256-256c38.4 0 64-25.6 64-64s-25.6-64-64-64C300.8 0 128 172.8 128 384z"  horiz-adv-x="1024" />

    
    <glyph glyph-name="jindutiaodaishangchuan" unicode="&#58945;" d="M798.811022 196.130133C798.811022 142.791111 755.438933 99.419022 702.099911 99.419022L321.900089 99.419022C268.561067 99.419022 225.188978 142.791111 225.188978 196.130133L225.188978 281.463467C225.188978 306.5856 245.577956 326.974578 270.700089 326.974578 295.822222 326.974578 316.2112 306.5856 316.2112 281.463467L316.2112 196.130133C316.2112 192.989867 318.759822 190.441244 321.900089 190.441244L702.099911 190.441244C705.240178 190.441244 707.7888 192.989867 707.7888 196.130133L707.7888 281.463467C707.7888 306.5856 728.177778 326.974578 753.299911 326.974578 778.422044 326.974578 798.811022 306.5856 798.811022 281.463467L798.811022 196.130133ZM297.255822 518.166756 479.823644 700.757333C488.356978 709.290667 499.939556 714.092089 512 714.092089 524.0832 714.092089 535.665778 709.290667 544.199111 700.757333L726.744178 518.166756C744.516267 500.394667 744.516267 471.563378 726.744178 453.814044 717.846756 444.939378 706.218667 440.479289 694.567822 440.479289 682.916978 440.479289 671.288889 444.939378 662.391467 453.814044L557.511111 558.6944 557.511111 281.463467C557.511111 256.341333 537.144889 235.952356 512 235.952356 486.877867 235.952356 466.488889 256.341333 466.488889 281.463467L466.488889 558.717156 361.608533 453.814044C343.836444 436.041956 315.027911 436.041956 297.255822 453.814044 279.483733 471.586133 279.483733 500.394667 297.255822 518.166756L297.255822 518.166756ZM512 896C229.239467 896 0 666.760533 0 384 0 101.216711 229.239467-128 512-128 794.760533-128 1024 101.216711 1024 384 1024 666.760533 794.760533 896 512 896L512 896Z"  horiz-adv-x="1024" />

    
    <glyph glyph-name="guanxiaobaotubiao21" unicode="&#59050;" d="M0 896l512-512L0-128l512 0 512 512L512 896 0 896 0 896zM0 896"  horiz-adv-x="1024" />

    
    <glyph glyph-name="gongdanpingjia" unicode="&#58912;" d="M287.999 543.746l447.999 0c17.665 0 32 14.335 32 32 0 17.662-14.335 32-32 32L287.999 607.746c-17.665 0-32-14.337-32-32C255.999 558.081 270.334 543.746 287.999 543.746L287.999 543.746zM735.998 416.256 287.999 416.256c-17.665 0-32-14.335-32-32s14.335-32 32-32l447.999 0c17.665 0 32 14.335 32 32S753.663 416.256 735.998 416.256L735.998 416.256zM735.998 224.257 287.999 224.257c-17.665 0-32-14.335-32-32 0-17.665 14.335-32 32-32l447.999 0c17.665 0 32 14.335 32 32C767.998 209.922 753.663 224.257 735.998 224.257L735.998 224.257zM418.686 736l160.002 0c26.525 0 48 21.505 48 48s-21.505 48-48 48L418.686 832c-26.495 0-48-21.505-48-48S392.191 736 418.686 736L418.686 736zM831.998 800l-32 0c-17.665 0-32-14.335-32-32s14.335-32 32-32l32 0c35.295 0 64-28.705 64-64l0-607.998c0-35.295-28.705-64-64-64L191.999 0.002c-35.295 0-64 28.705-64 64L127.999 672.001c0 35.295 28.705 64 64 64l32 0c17.665 0 32 14.335 32 32s-14.335 32-32 32l-32 0c-70.687 0-128-57.312-128-128l0-607.998c0-70.69 57.312-128 128-128l639.998 0c70.69 0 128 57.31 128 128L959.997 672.001C959.998 742.688 902.688 800 831.998 800L831.998 800z"  horiz-adv-x="1024" />

    
    <glyph glyph-name="ai06" unicode="&#58999;" d="M512.20415 737.384469c-193.733353 0-352.292602-158.535713-352.292602-352.290555 0-193.734376 158.559249-352.292602 352.292602-352.292602 193.756889 0 352.292602 158.558226 352.292602 352.292602C864.496751 578.847733 705.961038 737.384469 512.20415 737.384469M477.00651 244.189767l-70.462818 0 0 281.829783 70.462818 0L477.00651 244.189767zM617.933169 244.189767l-70.462818 0 0 281.829783 70.462818 0L617.933169 244.189767z"  horiz-adv-x="1024" />

    
    <glyph glyph-name="shuixingtuliao" unicode="&#58919;" d="M778.347161 373.009691M633.914654 510.285195M371.620809 432.424896M205.754131 542.842705M554.750663 16.117328M381.243981 114.09992M512.001023 896c-282.770202 0-512-229.229798-512-512 0-282.769178 229.229798-512 512-512s512 229.230822 512 512C1024.001023 666.770202 794.771225 896 512.001023 896zM511.955998 56.835705l-320.66937 208.008474c-25.384134 16.423041-32.573883 50.177819-16.08535 75.519997l148.648528 229.062999-137.491421 89.206718c-12.632715 8.195659-16.22759 25.074072-8.042163 37.759999 8.250918 12.643971 25.127284 16.238846 37.759999 8.042163l137.495514-89.209788 59.4633 91.631954c16.382109 25.318642 50.190099 32.519648 75.519997 16.084327l320.573179-208.085222c14.08274-9.137101 22.548552-23.629163 24.474414-39.049365 1.567705-12.322653-1.108241-25.251104-8.389064-36.470633l-237.737566-366.417297C570.998719 47.525666 537.298176 40.348196 511.955998 56.835705zM893.009643 199.045591c-32.914644-7.010671-76.514651-8.27957-81.350796 58.851363-2.839675 39.343053 37.786605 145.679917 37.786605 145.679917s82.934874-83.252099 93.871971-117.637234C963.692473 221.773222 925.923264 206.056262 893.009643 199.045591zM399.380036 585.50434l114.505917-74.293053c12.632715-8.196683 16.238846-25.12626 8.042163-37.759999-8.196683-12.632715-25.12626-16.237823-37.758975-8.042163l-114.504894 74.293053-118.889761-183.240371 528.688077 112.606661-320.627415 208.073966L399.380036 585.50434z"  horiz-adv-x="1025" />

    
    <glyph glyph-name="ai69" unicode="&#59067;" d="M783.296381 539.426909l-545.489742 0c-66.204841 0-116.883057-50.67617-116.883057-116.883057l0-233.764068 155.86079 0 0-155.859767 467.529159 0 0 155.859767 155.864884 0 0 233.764068C900.178415 488.749716 849.496106 539.426909 783.296381 539.426909M666.413324 110.819201l-311.664276 0 0 194.787358 311.664276 0L666.413324 110.819201zM783.296381 383.567141c-23.39892 0-38.983873 15.578814-38.983873 38.97671 0 23.401989 15.58393 38.925544 38.983873 38.925544 23.397896 0 38.921451-15.523555 38.921451-38.925544C822.217832 399.145955 806.694277 383.567141 783.296381 383.567141M744.312508 734.213243l-467.529159 0 0-155.862837 467.529159 0L744.312508 734.213243z"  horiz-adv-x="1024" />

    
    <glyph glyph-name="guanyu" unicode="&#59042;" d="M505.889 842.138C252.887 838.756 50.48 630.874 53.863 377.807c3.382-252.894 211.264-455.364 464.266-451.964 253.004 3.38 455.409 211.264 452.029 464.334C966.818 643.114 758.893 845.521 505.889 842.138L505.889 842.138zM556.684 689.434c46.56 0 60.305-26.987 60.305-57.905 0-38.617-30.94-74.312-83.67-74.312-44.12 0-65.11 22.21-63.865 58.865C469.477 646.996 495.374 689.434 556.684 689.434zM437.249 97.617c-31.832 0-55.132 19.33-32.88 104.29l36.502 150.61c6.327 24.155 7.375 33.82 0 33.82-9.512 0-50.857-16.695-75.292-33.12l-15.885 26.05c77.455 64.647 166.495 102.59 204.654 102.59 31.81 0 37.09-37.66 21.205-95.565l-41.825-158.38c-7.375-27.99-4.19-37.655 3.185-37.655 9.515 0 40.845 11.565 71.605 35.76l17.98-24.155C551.249 126.612 469.127 97.617 437.249 97.617L437.249 97.617 437.249 97.617z"  horiz-adv-x="1024" />

    
    <glyph glyph-name="slice33" unicode="&#58899;" d="M960 448C960 235.922656 788.077344 64 576 64 363.922656 64 192 235.922656 192 448 192 660.077344 363.922656 832 576 832L576 448 960 448ZM64-128 0-128 0 896 128 896 128 0 1024 0 1024-128 64-128ZM954.690662 512C927.713478 672.800312 800.800314 799.713479 640 826.69066L640 512 954.690662 512Z"  horiz-adv-x="1024" />

    
    <glyph glyph-name="wuuiconxiangjifangda" unicode="&#58913;" d="M512 896C230.4 896 0 665.6 0 384c0-281.6 230.4-512 512-512 281.6 0 512 230.4 512 512C1024 665.6 793.6 896 512 896zM716.8 332.8l-153.6 0 0-153.6c0-30.72-20.48-51.2-51.2-51.2s-51.2 20.48-51.2 51.2l0 153.6L307.2 332.8c-30.72 0-51.2 20.48-51.2 51.2 0 30.72 20.48 51.2 51.2 51.2l153.6 0L460.8 588.8c0 30.72 20.48 51.2 51.2 51.2s51.2-20.48 51.2-51.2l0-153.6 153.6 0c30.72 0 51.2-20.48 51.2-51.2C768 353.28 747.52 332.8 716.8 332.8z"  horiz-adv-x="1024" />

    
    <glyph glyph-name="shuzi6" unicode="&#59150;" d="M326.20594 10.215884l-75.562148-66.006098-27.280979 30.710368c-11.945062 13.756087-17.493735 24.545175-18.572644 36.837029-0.539454 6.165193 0.038532 16.877216 0.770649 26.125006l23.119474 262.521628 70.976785 66.006098 52.558271-56.796841L326.20594 10.215884zM366.703552 460.043784l-65.505177-58.33814-57.336296 58.33814 22.541487 268.648289c3.467921 30.710368 8.515673 43.002222 29.939719 61.420736l37.068223 32.251666 59.378516-64.503333L366.703552 460.043784zM649.955642-5.158566l63.116164-72.171292-25.624084-23.003877c-25.624084-23.042409-39.033379-27.666304-82.0356-27.666304L372.059564-128.000039c-50.670181 0-58.607867 3.082597-80.686964 27.666304l-21.9635 23.003877 79.646588 72.171292L649.955642-5.158566zM659.742886 444.669334c30.710368 0 40.15082-3.044064 60.611554-26.125006l29.16907-35.334263L679.664166 321.866394 377.222913 321.866394l-57.56749 61.382204 68.318046 61.459269L659.742886 444.707866zM414.522331 773.158528 352.061219 837.66186l35.411328 33.754432C407.393827 889.873339 422.19029 896 459.027319 896l293.231996 0 60.495957-59.879438-71.246513-62.962034L414.522331 773.158528zM700.972615 306.491944l65.659306 56.796841 35.44986-36.837029c11.829464-12.253321 15.567113-19.959813 16.761619-33.754432 0.809182-9.209257 0.886247-27.666304-0.732117-44.504988l-17.5708-202.64219c-4.469765-36.875561-10.789088-52.211479-32.097536-72.171292l-35.411328-33.792965-59.648243 67.585929L700.972615 306.491944z"  horiz-adv-x="1024" />

    
    <glyph glyph-name="icloading1" unicode="&#59090;" d="M128 384c0 211.2 172.8 384 384 384s384-172.8 384-384c0-38.4-25.6-64-64-64s-64 25.6-64 64c0 140.8-115.2 256-256 256S256 524.8 256 384s115.2-256 256-256c38.4 0 64-25.6 64-64s-25.6-64-64-64C300.8 0 128 172.8 128 384z"  horiz-adv-x="1024" />

    
    <glyph glyph-name="bianpaicanshu" unicode="&#59222;" d="M510.325 835.417c-240.066 0-435.331-195.263-435.331-435.329 0-240.032 195.263-435.331 435.331-435.331 240.032 0 435.329 195.298 435.329 435.331 0 240.066-195.296 435.329-435.329 435.329v0zM510.325 711.039c34.35 0 62.192-27.845 62.192-62.192 0-34.343-27.845-62.192-62.192-62.192-34.35 0-62.192 27.847-62.192 62.192 0 34.348 27.841 62.192 62.192 62.192v0zM634.704 151.329h-248.759v62.192h62.191v248.759h-62.191v62.191h186.572v-310.949h62.191l0.001-62.192z"  horiz-adv-x="1024" />

    
    <glyph glyph-name="luntan" unicode="&#58932;" d="M879.694895 833.761494 144.719544 833.761494c-44.509726 0-80.72044-40.518832-80.72044-90.322122l0-604.163049c0-49.823755 36.210713-90.358961 80.72044-90.358961l266.149663 0 101.354386-113.530706 101.285824 113.530706 266.180362 0c44.49233 0 80.68974 40.534182 80.68974 90.358961L960.379519 743.439372C960.379519 793.243685 924.185178 833.761494 879.694895 833.761494zM512.244059 24.21475l-72.915683 82.928734L159.102113 107.143485c-23.779589 0-43.125193 22.045085-43.125193 49.14121L115.97692 730.007455c0 27.099195 19.345604 49.145303 43.125193 49.145303l706.289008 0c23.74275 0 43.059702-22.046109 43.059702-49.145303l-0.007163-573.72276c0-27.096125-19.313881-49.14121-43.052538-49.14121L585.09425 107.143485 512.244059 24.21475zM776.022721 392.674567 271.482623 392.674567c-17.663288 0-32.033577-13.017478-32.033577-29.017894 0-16.000416 14.370289-29.015847 32.033577-29.015847l504.540098 0c17.680684 0 32.066323 13.016455 32.066323 29.015847C808.089044 379.657088 793.703405 392.674567 776.022721 392.674567zM776.022721 568.288237 271.482623 568.288237c-17.663288 0-32.033577-13.030781-32.033577-29.048593 0-15.98302 14.370289-28.986171 32.033577-28.986171l504.540098 0c17.680684 0 32.066323 13.003152 32.066323 28.986171C808.089044 555.256432 793.703405 568.288237 776.022721 568.288237z"  horiz-adv-x="1024" />

    
    <glyph glyph-name="rejuanshixin" unicode="&#59081;" d="M668.548964 757.301078c0 0-427.854555 16.107863-529.087167-29.569456C25.641495 676.374954 10.251993 436.493561 10.251993 352.396211c0 0 9.378601-300.606429 128.276549-348.196307 99.593276-39.86187 529.968234-20.388353 529.968234-20.388353s-167.004595 28.537963-185.980785 381.208165C482.621391 365.02074 456.542432 670.196231 668.548964 757.301078L668.548964 757.301078zM773.853311 753.000122c134.131907 0 242.857167-170.734546 242.857167-381.343241 0-210.657814-108.72526-381.394407-242.857167-381.394407-134.12986 0-242.857167 170.737616-242.857167 381.394407C530.944979 582.264553 639.722428 753.000122 773.853311 753.000122L773.853311 753.000122zM779.144828 156.85263c81.894172 0 148.450007 101.756545 148.450007 226.753397 0 124.95592-66.555835 226.670509-148.450007 226.670509-81.895195 0-148.495032-101.71459-148.495032-226.670509C630.649795 258.566196 697.249633 156.85263 779.144828 156.85263L779.144828 156.85263z"  horiz-adv-x="1024" />

    
    <glyph glyph-name="richengshili" unicode="&#58906;" d="M319.924403 638.029624c16.954137 0 30.699186 13.745049 30.699186 30.699186L350.623589 805.759743c0 16.954137-13.745049 30.699186-30.699186 30.699186s-30.699186-13.745049-30.699186-30.699186l0-137.030933C289.225217 651.774673 302.969243 638.029624 319.924403 638.029624zM705.942107 638.029624c16.954137 0 30.699186 13.745049 30.699186 30.699186L736.641293 805.759743c0 16.954137-13.745049 30.699186-30.699186 30.699186s-30.699186-13.745049-30.699186-30.699186l0-137.030933C675.242921 651.774673 688.98797 638.029624 705.942107 638.029624zM868.096231 737.22995 746.874355 737.22995l0-68.500117c0-22.605857-18.325367-40.932248-40.932248-40.932248s-40.932248 18.326391-40.932248 40.932248l0 68.500117L360.856651 737.22995l0-68.500117c0-22.605857-18.326391-40.932248-40.932248-40.932248s-40.932248 18.326391-40.932248 40.932248l0 68.500117L157.607574 737.22995c-16.019859 0-29.007661-12.986779-29.007661-29.006637l0-130.74374 768.502955 0L897.102868 708.222289C897.103892 724.243171 884.117113 737.22995 868.096231 737.22995zM128.600937-32.983973c0-16.019859 12.986779-29.006637 29.007661-29.006637l710.488657 0c16.019859 0 29.006637 12.986779 29.006637 29.006637L897.103892 516.080178l-768.502955 0L128.600937-32.983973zM569.640792 340.841038c14.855336 25.982768 40.73782 38.97364 77.647451 38.97364 36.906561 0 62.789045-12.990872 77.647451-38.97364 14.855336-25.982768 22.284539-62.891376 22.284539-110.724801 0-47.836495-7.429203-84.676541-22.284539-110.525256-14.858406-25.850761-40.74089-38.774095-77.647451-38.774095-36.909631 0-62.792115 12.922311-77.647451 38.774095-14.858406 25.847691-22.284539 62.688761-22.284539 110.525256C547.356252 277.949662 554.782386 314.85827 569.640792 340.841038zM394.571521 209.929476c-8.769734 3.597945-22.581298 5.395894-41.443901 5.395894l0 40.772612c18.456351 0.265036 31.335682 2.064009 38.639019 5.395894 12.613272 5.596462 18.921955 16.919345 18.921955 33.976836 0 11.057847-3.222391 20.051685-9.668197 26.981515-6.444782 6.92676-15.517415 10.392698-27.209712 10.392698-13.421684 0-23.290449-4.266164-29.601178-12.791327-6.314823-8.528234-9.337669-19.920702-9.069563-34.17638L281.976116 285.877215c0.531096 14.390755 2.995217 28.046776 7.386224 40.972157 4.659113 11.323906 11.978822 21.785166 21.963221 31.378661 7.450692 6.795776 16.301268 11.992125 26.550703 15.589047 10.249435 3.597945 22.827915 5.395894 37.736463 5.395894 27.684526 0 50.013067-7.164167 66.982554-21.485337 16.969487-14.32424 25.454742-33.546024 25.454742-57.661258 0-17.057491-5.065366-31.447223-15.189957-43.171242-6.395664-7.328919-13.060457-12.325723-19.986193-14.989389 5.196349 0 12.657274-4.465708 22.384823-13.390985 14.521738-13.459546 21.785166-31.847336 21.785166-55.162344 0-24.517393-8.488325-46.068222-25.457812-64.656579-16.972557-18.587334-42.095747-27.881001-75.373665-27.881001-40.996716 0-69.483514 13.390985-85.454254 40.172955-8.388041 14.255679-13.047154 32.908504-13.978363 55.962569l55.962569 0c0-11.592013 1.861394-21.185508 5.584182-28.780487 6.910387-13.990642 19.47147-20.985964 37.683251-20.985964 11.167341 0 20.904099 3.828188 29.211299 11.491729 8.3072 7.66047 12.463869 18.687618 12.463869 33.07735C417.683914 190.807976 409.979442 203.533812 394.571521 209.929476zM647.288243 127.18596c16.919345 0 28.011984 8.824993 33.277918 26.482141 5.26184 17.654079 7.894807 43.136449 7.894807 76.448136 0 34.907021-2.632967 60.758806-7.894807 77.547167-5.26491 16.788361-16.35755 25.182542-33.277918 25.182542-16.922415 0-28.115338-8.394181-33.577746-25.182542-5.465478-16.788361-8.194636-42.640146-8.194636-77.547167 0-33.311687 2.729158-58.794058 8.194636-76.448136C619.172905 136.010953 630.364805 127.18596 647.288243 127.18596z"  horiz-adv-x="1024" />

    
    <glyph glyph-name="conLeft" unicode="&#59051;" d="M962-66l-450 450 450 450h-450l-450-450 450-450h450zM962-66z"  horiz-adv-x="1024" />

    
    <glyph glyph-name="jiantou" unicode="&#58915;" d="M778.965749 767.240451l-383.064442-383.063419 388.097062-388.096039-0.070608-0.033769c12.709463-13.137205 20.529569-31.024597 20.529569-50.731428 0-40.376593-32.736589-73.112158-73.115228-73.112158-19.705807 0-37.591153 7.819083-50.730405 20.528546l-0.034792-0.035816L241.890654 331.377502l0.035816 0.035816c-13.779841 13.281491-22.3838 31.915897-22.3838 52.585659 0 0.071631 0 0.106424 0 0.178055 0 0.072655 0 0.10847 0 0.144286 0 20.669762 8.603959 39.341007 22.3838 52.622498l-0.035816 0.034792L680.573835 875.662813l0.180102-0.179079c13.139252 12.5662 30.950919 20.313651 50.587142 20.313651 40.378639 0 73.115228-32.736589 73.115228-73.114205C804.455283 800.514275 794.567076 780.665205 778.965749 767.240451z"  horiz-adv-x="1024" />

    
    <glyph glyph-name="lianxirenxinxi" unicode="&#59038;" d="M602.505051 571.345455c-67.749495 0-122.828283-43.571717-122.828283-121.018182 0-77.446465 54.949495-133.947475 122.828283-133.947475s122.828283 56.371717 122.828283 133.947475C725.333333 527.773737 670.383838 571.345455 602.505051 571.345455L602.505051 571.345455zM805.753535 791.272727 218.246465 791.272727C162.262626 791.272727 116.363636 741.107071 116.363636 685.252525l0-97.616162c0.129293 0 0.129293 0 0.258586 0l193.034343 0c14.092929 0 25.470707-11.377778 25.470707-25.470707 0-14.092929-11.377778-25.470707-25.470707-25.470707L116.622222 536.694949c-0.129293 0-0.129293 0-0.258586 0l0-101.882828c0.129293 0 0.129293 0 0.258586 0l193.034343 0c14.092929 0 25.470707-11.377778 25.470707-25.470707 0-14.092929-11.377778-25.470707-25.470707-25.470707L116.622222 383.870707c-0.129293 0-0.129293 0-0.258586 0l0-101.882828c0.129293 0 0.129293 0 0.258586 0l193.034343 0c14.092929 0 25.470707-11.377778 25.470707-25.470707 0-14.092929-11.377778-25.470707-25.470707-25.470707L116.622222 231.046465c-0.129293 0-0.129293 0-0.258586 0l0-153.341414C116.363636 22.109091 161.616162-23.272727 217.470707-23.272727l583.628283 0c55.854545 0 106.408081 45.89899 106.408081 101.882828L907.507071 689.519192C907.636364 745.373737 861.737374 791.272727 805.753535 791.272727L805.753535 791.272727zM795.410101 212.428283l-35.038384 0 0 18.618182c0 37.236364-28.315152 68.39596-66.19798 76.670707-25.858586-20.557576-57.406061-26.375758-91.668687-26.375758-34.262626 0-65.810101 5.818182-91.668687 26.375758-37.882828-8.274747-66.19798-39.305051-66.19798-76.670707l0-18.618182-35.038384 0 0 27.410101c0 46.028283 29.737374 84.816162 70.981818 99.038384-22.49697 30.254545-35.943434 69.042424-35.943434 111.450505 0 96.840404 70.723232 156.185859 157.866667 156.185859s157.866667-59.345455 157.866667-156.185859c0-42.278788-13.446465-81.066667-35.943434-111.450505 41.244444-14.222222 70.981818-53.010101 70.981818-99.038384L795.410101 212.428283 795.410101 212.428283z"  horiz-adv-x="1024" />

    
    <glyph glyph-name="shuxingxuanze" unicode="&#58917;" d="M764.860624-50.487625l-18.420266 0 0 10.233062 18.420266 0L764.860624-50.487625 764.860624-50.487625zM705.506432-50.487625l-18.420266 0 0 10.233062 18.420266 0L705.506432-50.487625 705.506432-50.487625zM646.152241-50.487625l-18.420266 0 0 10.233062 18.420266 0L646.152241-50.487625 646.152241-50.487625zM586.79805-50.487625l-18.420266 0 0 10.233062 18.420266 0L586.79805-50.487625 586.79805-50.487625zM527.443858-50.487625l-18.420266 0 0 10.233062 18.420266 0L527.443858-50.487625 527.443858-50.487625zM468.089667-50.487625l-18.420266 0 0 10.233062 18.420266 0L468.089667-50.487625 468.089667-50.487625zM408.735476-50.487625l-18.420266 0 0 10.233062 18.420266 0L408.735476-50.487625 408.735476-50.487625zM349.381284-50.487625l-18.420266 0 0 10.233062 18.420266 0L349.381284-50.487625 349.381284-50.487625zM290.027093-50.487625l-18.420266 0 0 10.233062 18.420266 0L290.027093-50.487625 290.027093-50.487625zM88.426488 106.0772l-10.233481 0 0 16.372899 10.233481 0L88.426488 106.0772 88.426488 106.0772zM948.039939 110.174518l-10.233481 0 0 18.419512 10.233481 0L948.039939 110.174518 948.039939 110.174518zM88.426488 163.382347l-10.233481 0 0 18.419512 10.233481 0L88.426488 163.382347 88.426488 163.382347zM948.039939 169.526277l-10.233481 0 0 18.419512 10.233481 0L948.039939 169.526277 948.039939 169.526277zM88.426488 222.734106l-10.233481 0 0 18.419512 10.233481 0L88.426488 222.734106 88.426488 222.734106zM948.039939 228.878037l-10.233481 0 0 18.419512 10.233481 0L948.039939 228.878037 948.039939 228.878037zM88.426488 282.085866l-10.233481 0 0 18.419512 10.233481 0L88.426488 282.085866 88.426488 282.085866zM948.039939 288.229796l-10.233481 0 0 18.419512 10.233481 0L948.039939 288.229796 948.039939 288.229796zM88.426488 341.437625l-10.233481 0 0 18.419512 10.233481 0L88.426488 341.437625 88.426488 341.437625zM948.039939 347.581556l-10.233481 0 0 18.419512 10.233481 0L948.039939 347.581556 948.039939 347.581556zM88.426488 400.789385l-10.233481 0 0 18.419512 10.233481 0L88.426488 400.789385 88.426488 400.789385zM948.039939 406.933315l-10.233481 0 0 18.419512 10.233481 0L948.039939 406.933315 948.039939 406.933315zM88.426488 460.141144l-10.233481 0 0 18.419512 10.233481 0L88.426488 460.141144 88.426488 460.141144zM948.039939 466.285075l-10.233481 0 0 18.419512 10.233481 0L948.039939 466.285075 948.039939 466.285075zM88.426488 519.492904l-10.233481 0 0 18.419512 10.233481 0L88.426488 519.492904 88.426488 519.492904zM948.039939 525.636834l-10.233481 0 0 18.419512 10.233481 0L948.039939 525.636834 948.039939 525.636834zM88.426488 578.844663l-10.233481 0 0 18.419512 10.233481 0L88.426488 578.844663 88.426488 578.844663zM948.039939 584.988594l-10.233481 0 0 18.419512 10.233481 0L948.039939 584.988594 948.039939 584.988594zM88.426488 638.196423l-10.233481 0 0 18.419512 10.233481 0L88.426488 638.196423 88.426488 638.196423zM948.039939 644.340353l-10.233481 0 0 18.419512 10.233481 0L948.039939 644.340353 948.039939 644.340353zM756.670769 809.090605l-18.420266 0 0 10.233062 18.420266 0L756.670769 809.090605 756.670769 809.090605zM697.317601 809.090605l-18.420266 0 0 10.233062 18.420266 0L697.317601 809.090605 697.317601 809.090605zM637.963409 809.090605l-18.420266 0 0 10.233062 18.420266 0L637.963409 809.090605 637.963409 809.090605zM578.609218 809.090605l-18.420266 0 0 10.233062 18.420266 0L578.609218 809.090605 578.609218 809.090605zM519.255027 809.090605l-18.420266 0 0 10.233062 18.420266 0L519.255027 809.090605 519.255027 809.090605zM459.900835 809.090605l-18.420266 0 0 10.233062 18.420266 0L459.900835 809.090605 459.900835 809.090605zM400.546644 809.090605l-18.420266 0 0 10.233062 18.420266 0L400.546644 809.090605 400.546644 809.090605zM341.192452 809.090605l-18.420266 0 0 10.233062 18.420266 0L341.192452 809.090605 341.192452 809.090605zM281.838261 809.090605l-18.420266 0 0 10.233062 18.420266 0L281.838261 809.090605 281.838261 809.090605zM75.656127-51.957093l155.618503 0L231.27463 103.730759 75.656127 103.730759 75.656127-51.957093zM793.39464-51.957093l155.604176 0L948.998816 103.730759 793.39464 103.730759 793.39464-51.957093zM793.39464 821.860443l0-155.688875 155.604176 0L948.998816 821.860443 793.39464 821.860443zM75.656127 666.171568l155.618503 0L231.27463 821.860443 75.656127 821.860443 75.656127 666.171568zM671.369586 399.09786 365.919613 627.566318 409.915396 247.274012 495.789654 359.925698 612.952781 155.776112 647.216523 175.671231 529.721831 380.400009Z"  horiz-adv-x="1024" />

    
    <glyph glyph-name="login102" unicode="&#58953;" d="M718.725858 711.496215 305.271072 711.496215c-76.861398 0-139.169365-62.30899-139.169365-139.169365L166.101707 195.671104c0-76.859352 62.307967-139.169365 139.169365-139.169365l413.454787 0c76.861398 0 139.169365 62.310013 139.169365 139.169365L857.895223 572.32685C857.895223 649.187225 795.587257 711.496215 718.725858 711.496215zM250.672679 163.407347c6.464212 7.935724 26.106536 31.611912 49.648671 55.756773 41.883839 42.957285 62.690682 53.155534 69.032098 55.469225 8.159827-5.057169 23.2771-22.250726 32.6301-32.886949 23.73554-26.99681 48.280513-54.911524 80.869681-58.393828 28.162354-3.001351 52.282656 14.610737 75.599664 31.649774 7.125267 5.206572 18.33761 13.399145 24.800799 16.618459 7.248063-3.691058 28.208402-17.514874 67.274062-66.398113 9.175968-11.481473 17.722605-22.868801 25.076068-32.997466L305.271072 132.225223C282.06151 132.226246 261.734596 144.760699 250.672679 163.407347zM782.170716 195.671104c0-20.018899-9.329464-37.88886-23.857313-49.524851-9.026566 13.387888-27.45525 39.945701-49.461406 67.390718-61.415645 76.598409-95.02607 90.243147-114.964128 93.843131-29.956206 5.407139-56.603046-14.057129-80.110389-31.235336-6.819299-4.982468-17.41766-12.726834-23.889035-16.13239-8.214062 5.778599-22.223096 21.713491-31.036815 31.737778-25.604093 29.119143-52.064692 59.217588-88.130024 59.217588-0.399089 0-0.803294-0.005117-1.204429-0.01228-32.163473-0.595563-69.369789-24.062997-120.637327-76.09392-2.391462-2.427277-4.740968-4.848415-7.053636-7.258296L241.826214 572.32685c0 34.983699 28.461158 63.444857 63.444857 63.444857l413.454787 0c34.983699 0 63.444857-28.461158 63.444857-63.444857L782.170716 195.671104zM603.921365 586.33179c-71.565799 0-129.785666-58.221913-129.785666-129.785666 0-71.564776 58.22089-129.785666 129.785666-129.785666 71.564776 0 129.785666 58.22089 129.785666 129.785666C733.708055 528.109877 675.486141 586.33179 603.921365 586.33179zM603.921365 402.484966c-29.809873 0-54.061158 24.251285-54.061158 54.061158s24.251285 54.061158 54.061158 54.061158 54.061158-24.251285 54.061158-54.061158S633.731239 402.484966 603.921365 402.484966z"  horiz-adv-x="1024" />

    
    <glyph glyph-name="xiaoxiintouch01" unicode="&#58923;" d="M512 896C229.376 896 0 695.296 0 448.512c0-141.312 74.752-259.072 192.512-340.992L192.512-128l234.496 128c0 0 52.224 0 84.992 0 282.624 0 512 200.704 512 448.512C1024 695.296 794.624 896 512 896zM256 384c-35.84 0-63.488 28.672-63.488 64.512 0 35.84 28.672 64.512 63.488 64.512 35.84 0 64.512-28.672 64.512-64.512S291.84 384 256 384zM512 384c-35.84 0-64.512 28.672-64.512 64.512 0 35.84 28.672 64.512 64.512 64.512 35.84 0 64.512-28.672 64.512-64.512C576.512 412.672 547.84 384 512 384zM768 384c-35.84 0-64.512 28.672-64.512 64.512 0 35.84 28.672 64.512 64.512 64.512 35.84 0 63.488-28.672 63.488-64.512C832.512 412.672 803.84 384 768 384z"  horiz-adv-x="1024" />

    
    <glyph glyph-name="gouxuan" unicode="&#58929;" d="M64.132646 399.435551l57.085136 54.933123L383.858528 231.287923c0 0 195.159842 180.534749 552.393989 479.748459l23.016203-57.541531c0 0-297.774941-287.705608-576.84896-594.112136L64.132646 399.435551z"  horiz-adv-x="1024" />

    
    </font>
</defs>
</svg>
